<svg width="112" height="154" viewBox="0 0 112 154" fill="none" xmlns="http://www.w3.org/2000/svg">
<g id="Frame" clip-path="url(#clip0_1_2206)">
<g id="Group">
<path id="Vector" d="M63.2652 9.08838C62.9201 9.94831 64.8286 13.6453 64.9978 14.7897C65.2549 16.5231 65.1602 18.2565 64.3819 19.8477C62.5208 23.6666 57.7698 25.7792 54.1558 27.5193C54.9882 27.1198 44.2884 46.6748 38.2041 63.9411C33.5208 61.2192 28.8714 58.1383 24.8919 54.4345C21.305 51.1031 17.7722 47.9004 16.7097 42.9507C29.8459 45.8013 40.2209 34.2227 47.2256 24.8583C49.7906 21.4253 53.4993 19.9763 56.7885 17.3694C59.6241 15.1214 61.9184 12.4536 63.2652 9.08838Z" fill="#E1DEE5"/>
<path id="Vector_2" d="M110.958 79.8126C111.093 78.235 110.687 76.8333 109.875 75.4994C109.638 75.1067 109.421 74.5447 109.063 74.2535C108.684 73.9556 107.296 73.8811 107.114 73.6035C108.054 75.0051 107.527 77.5985 106.843 78.9865C104.725 83.2862 100.055 82.4601 96.2649 83.7805C97.5982 86.604 99.9872 87.5723 102.87 87.0442C103.479 86.9358 104.109 86.753 104.758 86.5025C107.222 85.541 110.707 82.6497 110.958 79.8126Z" fill="#E1DEE5"/>
<path id="Vector_3" d="M69.9653 147.374C72.2055 147.043 74.4185 146.603 76.5707 145.959C78.134 145.492 84.5837 143.969 84.4958 141.707C85.1658 143.048 86.3907 143.44 87.3585 144.436C88.2857 145.391 88.9354 146.819 89.7679 147.882C90.2348 148.478 92.6915 152.114 93.4766 152.101C87.1013 152.223 81.5247 152.148 75.6029 152.06C65.9791 151.911 56.0102 152.757 46.4405 151.755C53.7565 148.438 62.0403 148.553 69.9653 147.374Z" fill="#E1DEE5"/>
<g id="Vector_4">
<path d="M6.93021 28.1895C0.372235 33.5725 -0.494041 40.7296 3.16056 48.2793C7.28891 56.8109 18.7671 58.0704 24.1001 53.6691" fill="#FCCE67"/>
<path d="M6.93021 28.1895C0.372235 33.5725 -0.494041 40.7295 3.16056 48.2793C7.28891 56.8109 18.7671 58.0704 24.1001 53.6691" stroke="#364166" stroke-width="3" stroke-miterlimit="10" stroke-linecap="round" stroke-linejoin="round"/>
</g>
<path id="Vector_5" d="M53.303 1.32185C57.0253 1.93124 60.3009 4.55844 62.3651 7.66638C69.4239 18.297 63.096 23.2196 54.1626 27.5193C54.995 27.1198 44.2951 46.6747 38.2109 63.9411C22.6924 54.9152 14.3071 44.9007 8.43943 29.4084C7.34982 26.5307 2.55823 13.239 4.3923 7.18563C14.0296 9.05445 27.5449 8.41797 39.5035 8.19452C40.336 8.44505 48.6807 1.26768 51.4351 1.19319C52.0713 1.17965 52.6939 1.22705 53.303 1.32185Z" stroke="#364166" stroke-width="3" stroke-miterlimit="10" stroke-linecap="round" stroke-linejoin="round"/>
<path id="Vector_6" d="M54.2505 27.5056C49.2288 23.2737 45.8314 18.9537 42.5423 13.9634" stroke="#364166" stroke-width="3" stroke-miterlimit="10" stroke-linecap="round" stroke-linejoin="round"/>
<path id="Vector_7" d="M64.4022 22.0889C65.7558 23.8832 66.6762 25.0885 68.0636 26.8557C66.6017 27.5058 60.8288 35.4076 57.6344 26.1515" stroke="#364166" stroke-width="3" stroke-miterlimit="10" stroke-linecap="round" stroke-linejoin="round"/>
<path id="Vector_8" d="M61.6071 30.6069C69.4442 38.5088 75.9751 50.4869 82.6008 59.4315C85.3485 63.1421 91.5681 72.2493 94.6339 75.7093" stroke="#364166" stroke-width="3" stroke-miterlimit="10" stroke-linecap="round" stroke-linejoin="round"/>
<path id="Vector_9" d="M68.0703 26.8555C70.5 30.6202 81.3217 42.1853 84.1641 46.3156C90.8575 56.0389 97.1583 62.6069 104.251 71.7276" stroke="#364166" stroke-width="3" stroke-miterlimit="10" stroke-linecap="round" stroke-linejoin="round"/>
<path id="Vector_10" d="M7.05204 37.8384C6.32789 39.0504 5.99626 41.1969 5.75262 42.4766C7.10618 42.1854 8.95378 42.9032 10.3344 42.6459C9.79299 44.2506 10.3344 46.1736 9.33955 47.8935C10.4562 48.0154 11.9993 48.2253 13.143 47.995" stroke="#364166" stroke-width="3" stroke-miterlimit="10" stroke-linecap="round" stroke-linejoin="round"/>
<path id="Vector_11" d="M110.958 79.8126C111.58 72.6623 101.801 69.5544 96.7048 73.353C90.5935 77.9031 94.5527 88.5812 102.877 87.0509C103.486 86.9426 104.116 86.7598 104.765 86.5092C107.222 85.541 110.707 82.6497 110.958 79.8126Z" stroke="#364166" stroke-width="3" stroke-miterlimit="10" stroke-linecap="round" stroke-linejoin="round"/>
<path id="Vector_12" d="M96.38 86.1772C96.2785 86.4007 95.4325 86.9153 94.5121 88.3101C92.211 91.7973 88.7527 95.0948 86.1268 98.2975C76.6587 109.829 67.5357 121.61 58.2097 133.25" stroke="#364166" stroke-width="3" stroke-miterlimit="10" stroke-linecap="round" stroke-linejoin="round"/>
<path id="Vector_13" d="M106.931 85.3105C105.219 88.9805 100.373 93.9166 97.9704 96.5506C92.1433 102.922 87.9676 110.533 82.0594 116.871C77.3557 121.915 75.1562 128.165 71.0685 133.243" stroke="#364166" stroke-width="3" stroke-miterlimit="10" stroke-linecap="round" stroke-linejoin="round"/>
<g id="Vector_14">
<path d="M40.1059 139.649C39.4697 137.875 39.3682 137.293 38.2041 135.769C38.9351 134.665 41.8384 132.573 43.2732 132.979C44.8569 133.426 45.0599 135.552 45.7096 137.089" fill="#FCCE67"/>
<path d="M40.1059 139.649C39.4697 137.875 39.3682 137.293 38.2041 135.769C38.9351 134.665 41.8384 132.573 43.2732 132.979C44.8569 133.426 45.0599 135.552 45.7096 137.089" stroke="#364166" stroke-width="3" stroke-miterlimit="10" stroke-linecap="round" stroke-linejoin="round"/>
</g>
<path id="Vector_15" d="M67.8605 133.169C77.755 134.442 88.4008 143.976 93.4698 152.101C87.0946 152.223 81.5179 152.148 75.5893 152.06C67.8605 151.938 59.8272 151.965 52.0713 151.925C41.5542 151.871 31.0844 152.351 20.5944 151.769C23.7414 150.442 29.406 145.702 31.6123 144.287C35.0706 142.073 38.732 140.245 42.4678 138.559C50.2643 135.044 59.2045 132.052 67.8605 133.169Z" stroke="#364166" stroke-width="3" stroke-miterlimit="10" stroke-linecap="round" stroke-linejoin="round"/>
</g>
</g>
<defs>
<clipPath id="clip0_1_2206">
<rect width="112" height="153" fill="white" transform="translate(0 0.177734)"/>
</clipPath>
</defs>
</svg>
