<svg width="148" height="67" viewBox="0 0 148 67" fill="none" xmlns="http://www.w3.org/2000/svg">
<path d="M7.06501 39.9477C6.70757 34.5524 6.44584 30.5826 6.56276 27.4589C6.67902 24.3528 7.16851 22.1974 8.23747 20.3978C9.11342 18.9231 10.2529 17.6219 11.5991 16.5591C13.242 15.262 15.314 14.4925 18.3777 13.9675C21.4586 13.4395 25.4282 13.1753 30.8236 12.8178L120.037 6.90747C124.288 6.62587 127.415 6.41947 129.899 6.45965C132.37 6.49964 134.114 6.78464 135.612 7.43535C138.282 8.59528 140.524 10.5586 142.026 13.0522C142.869 14.451 143.381 16.1425 143.747 18.5871C144.114 21.0435 144.322 24.1708 144.604 28.4215C144.942 33.5189 145.19 37.2814 145.142 40.2716C145.094 43.25 144.75 45.3729 143.954 47.2044C142.546 50.4465 140.162 53.1688 137.134 54.9927C135.423 56.023 133.364 56.6436 130.418 57.0842C127.461 57.5267 123.698 57.7767 118.601 58.1144L34.1949 63.7063C28.7996 64.0637 24.8297 64.3254 21.7061 64.2085C18.6 64.0923 16.4446 63.6028 14.6449 62.5338C13.1703 61.6579 11.8691 60.5184 10.8063 59.1721C9.50923 57.5292 8.73967 55.4573 8.21466 52.3936C7.6867 49.3127 7.42245 45.3431 7.06501 39.9477Z" fill="#FF8743" stroke="black" stroke-width="2"/>
<rect x="1.06392" y="11.2125" width="138" height="51" rx="14" transform="rotate(-3.79028 1.06392 11.2125)" fill="#FFE500" stroke="black" stroke-width="2"/>
<path d="M56.5872 32.6615C56.7803 35.5751 56.5651 41.1014 52.5963 41.7051C48.6874 42.3048 46.8671 36.9133 46.1698 33.953C45.9061 34.8123 45.4931 36.1425 44.9417 37.5019C43.9975 39.8895 42.7487 42.2172 40.9406 42.4572C38.1985 42.8193 37.7908 37.8754 37.6507 35.7601C37.4525 32.466 37.4566 28.8979 37.9768 25.5562C38.0622 25.0294 38.54 24.677 39.0562 24.6028C39.6908 24.5006 40.1616 24.9504 40.1839 25.5904C40.1892 25.6702 40.1945 25.75 40.1798 25.8312C39.8126 29.0625 39.681 32.2181 39.8938 35.4311C40.342 42.1962 41.4563 40.2583 43.3981 35.3793C44.2397 33.259 44.6518 31.0069 45.2061 28.7854C45.3327 28.2759 45.7267 27.8689 46.2429 27.7947C46.8975 27.6912 47.2884 28.1463 47.4079 28.7397C47.7943 30.6383 49.2738 39.9609 52.4296 39.4913C54.4932 39.1742 54.4525 34.6269 54.3865 33.3284C54.2014 30.5346 53.4708 27.9773 52.7947 25.3362C52.7894 25.2564 52.7629 25.1579 52.7576 25.0781C52.7166 24.4594 53.1572 23.849 53.7932 23.7667C54.2881 23.6738 54.7856 23.9215 54.9383 24.4125C55.7515 27.0044 56.4061 29.9275 56.5872 32.6615ZM60.0971 39.304C59.4585 39.3463 58.9678 38.8978 58.8856 38.2618C58.5489 35.2976 58.187 32.2549 57.99 29.2814C57.9503 28.6827 58.4548 28.1281 59.0535 28.0885C60.0513 28.0224 60.2505 28.9111 60.302 29.6894C61.3761 28.6562 62.7664 28.4638 64.1833 28.37C64.782 28.3303 65.3365 28.8348 65.3762 29.4334C65.437 30.3514 64.632 30.6052 63.8364 30.698C63.1606 30.7829 62.4182 30.7719 61.8526 31.3105C60.6681 32.4914 60.9462 35.4795 61.0493 37.0361C61.1062 37.8942 61.3943 39.2181 60.0971 39.304ZM68.6763 39.4973C67.1796 39.5965 67.3735 37.3788 67.3206 36.5805C67.1751 34.3854 67.099 32.0252 67.4538 29.817C67.5258 29.3913 68.0115 29.1586 68.4904 29.1269C69.149 29.0833 69.5373 29.4985 69.569 29.9775L69.5596 30.1384C69.3738 32.1752 69.3278 34.2027 69.4626 36.2382C69.5155 37.0365 69.6256 37.7908 69.6772 38.5691C69.7076 39.0281 69.2351 39.4603 68.6763 39.4973ZM68.6996 28.3514C68.1209 28.3897 67.5477 27.9066 67.508 27.3079C67.4684 26.7092 67.9316 26.1373 68.5502 26.0963C69.1489 26.0567 69.7234 26.5598 69.7631 27.1585C69.8041 27.7771 69.2983 28.3117 68.6996 28.3514ZM70.6885 29.2619C70.5933 27.8251 73.7011 27.8396 74.7774 27.7483C74.8217 26.9035 74.8619 25.9989 75.0259 25.1462C75.1139 24.6593 75.5757 24.3681 76.0946 24.3338C76.7531 24.2901 77.2039 24.7413 77.2436 25.34C77.2899 26.0385 77.0647 26.8752 77.0325 27.5989C78.1513 27.5448 79.2915 27.5094 80.4183 27.575C81.0422 27.6139 81.5636 27.9201 81.6046 28.5387C81.635 28.9977 81.2356 29.6255 80.6968 29.6612C79.4595 29.7432 78.1704 29.6482 76.9305 29.6902C76.9141 30.6534 76.9377 31.614 76.9998 32.5519C77.1043 34.1284 77.4413 36.1907 77.6655 37.7593L77.6747 37.899C77.7065 38.3779 77.0757 38.8406 76.5967 38.8724C75.9182 38.9173 75.5486 38.4808 75.4104 37.9087C75.0692 36.3879 74.8639 34.1967 74.7607 32.6401C74.6986 31.7022 74.6777 30.7815 74.6767 29.8596C73.7015 29.9643 72.7143 30.19 71.7364 30.2548C71.2375 30.2879 70.7189 29.7209 70.6885 29.2619ZM84.9493 38.4192C83.4526 38.5184 83.6464 36.3007 83.5935 35.5025C83.4481 33.3073 83.3719 30.9472 83.7267 28.7389C83.7987 28.3132 84.2844 28.0806 84.7633 28.0488C85.4219 28.0052 85.8102 28.4205 85.8419 28.8994L85.8325 29.0604C85.6468 31.0971 85.6007 33.1246 85.7355 35.1601C85.7884 35.9584 85.8985 36.7127 85.9501 37.491C85.9805 37.95 85.508 38.3822 84.9493 38.4192ZM84.9725 27.2733C84.3938 27.3117 83.8206 26.8285 83.7809 26.2298C83.7413 25.6311 84.2045 25.0592 84.8231 25.0183C85.4218 24.9786 85.9963 25.4817 86.036 26.0804C86.077 26.6991 85.5712 27.2337 84.9725 27.2733ZM88.8267 37.5811C88.2081 37.6221 87.6761 37.1562 87.6351 36.5376C87.45 33.7437 87.2823 30.9086 87.2169 28.1068C87.1959 27.4868 87.6218 26.9575 88.2604 26.9152C88.7593 26.8821 89.1996 27.1737 89.371 27.6434L89.3909 27.642C89.8914 27.0276 90.6073 26.6394 91.3856 26.5879C94.6185 26.3737 95.1251 30.389 95.2798 32.7239C95.3604 33.9412 95.3826 34.8818 95.3223 36.0884C95.3034 36.711 94.9173 37.2377 94.2588 37.2813C93.6401 37.3223 93.1082 36.8565 93.0672 36.2378C92.9852 35.0005 93.1227 34.0494 93.0394 32.7921C93.0076 32.3132 92.9403 30.9947 92.6135 29.9942C91.589 26.9352 90.035 30.4055 89.9905 31.8516C89.95 33.3576 89.8748 34.946 89.8702 36.3895C89.87 36.9908 89.4454 37.5401 88.8267 37.5811ZM100.683 42.6685C99.565 42.7425 97.246 43.1367 97.1415 41.5601C97.1098 41.0812 97.6129 40.5067 98.0919 40.4749C98.8901 40.4221 99.7163 40.4876 100.534 40.4334C101.293 40.3831 102.267 40.2585 103.065 39.9049C104.485 39.2497 104.729 38.3917 103.666 37.1792C103.125 36.5737 102.457 35.8763 102.212 35.1911C101.86 35.3346 101.465 35.4209 101.086 35.446C98.8509 35.5941 96.852 33.8624 96.704 31.6273C96.4792 28.2348 100.051 25.5728 103.164 25.3666C104.102 25.3045 105.358 25.2012 105.441 26.4584C105.451 26.5981 105.44 26.7392 105.389 26.8828C105.708 27.463 105.884 28.2932 105.927 28.9518C106.053 30.8476 103.758 33.7256 104.751 35.103C105.561 36.1317 106.584 36.7454 106.68 38.2022C106.896 41.4551 103.157 42.5045 100.683 42.6685ZM100.838 33.2175C103.153 33.0642 104.413 29.3928 103.292 27.603C101.377 27.7299 98.8215 29.4025 98.9643 31.5578C99.0251 32.4758 99.9002 33.2797 100.838 33.2175Z" fill="black"/>
</svg>
