<svg width="59" height="58" viewBox="0 0 59 58" fill="none" xmlns="http://www.w3.org/2000/svg">
<rect x="0.712891" y="0.456543" width="58" height="57" rx="15" fill="#767676"/>
<rect x="1.71289" y="1.45654" width="56" height="51" rx="14" fill="white" stroke="#767676" stroke-width="2"/>
<path d="M18.3144 17.5937C19.3544 17.5737 20.4744 17.7537 21.5344 17.8137C23.7944 17.8937 26.0544 17.9137 28.3144 17.8537C29.6144 17.8137 30.8744 17.6937 32.1744 17.6537C32.7744 17.6337 33.3344 18.1137 33.3544 18.7337C33.3744 19.4137 32.8744 19.7937 32.2544 19.8937C30.9744 20.0937 29.5544 20.0737 28.2544 20.1137L26.3944 20.1537C26.3144 23.2937 26.2544 25.8537 26.2544 28.9937C26.2544 30.4937 26.3544 32.0137 26.2744 33.4937C26.2544 34.0937 25.8544 34.6537 25.1944 34.6737C24.5744 34.6937 24.0544 34.1737 24.0344 33.5537C23.9144 28.8937 24.0144 24.7937 24.1344 20.1337C22.2744 20.0937 20.2344 20.1337 18.3744 19.8537C17.7744 19.7737 17.2544 19.4337 17.2344 18.7537C17.2144 18.1337 17.6944 17.6137 18.3144 17.5937ZM30.7808 28.3337C30.0608 20.9537 42.4408 19.7537 42.4408 27.3937C42.4408 34.5937 30.9808 36.3537 30.7808 28.3337ZM40.2008 27.5737C40.2008 24.4337 37.1208 23.8537 34.9808 25.0537C33.8608 25.6737 33.0008 26.7937 33.0008 28.2937C33.0008 28.7337 33.1008 29.1737 33.2408 29.5937C33.2608 29.6337 33.3208 29.7137 33.2808 29.7137C33.2608 29.7137 33.2408 29.6737 33.2608 29.6537C33.7808 30.9937 34.8208 31.5337 35.9408 31.5137C37.9408 31.4737 40.2008 29.6737 40.2008 27.5737Z" fill="black"/>
</svg>
