<svg width="196" height="66" viewBox="0 0 196 66" fill="none" xmlns="http://www.w3.org/2000/svg">
<path d="M6.55896 30.5587C6.81061 25.1574 6.99702 21.1833 7.46451 18.0927C7.92938 15.0193 8.65819 12.9327 9.92277 11.2647C10.959 9.89786 12.2376 8.7331 13.6949 7.82842C15.4732 6.72441 17.6186 6.19277 20.7219 6.01566C23.8426 5.83756 27.8168 6.02145 33.2181 6.2731L172.185 12.7475C176.105 12.9302 178.99 13.0652 181.266 13.3456C183.531 13.6247 185.112 14.0397 186.439 14.74C189.329 16.2643 191.594 18.751 192.843 21.7695C193.417 23.1563 193.683 24.7689 193.75 27.0504C193.818 29.3425 193.684 32.2269 193.501 36.1473C193.27 41.1091 193.099 44.7744 192.742 47.6696C192.387 50.5543 191.856 52.5927 190.947 54.3147C188.987 58.0296 185.79 60.9421 181.909 62.548C180.11 63.2924 178.031 63.6318 175.126 63.7174C172.21 63.8034 168.545 63.6333 163.583 63.4021L30.8446 57.2178C25.4433 56.9662 21.4692 56.7798 18.3786 56.3123C15.3052 55.8474 13.2185 55.1186 11.5505 53.854C10.1837 52.8178 9.01896 51.5392 8.11428 50.0819C7.01027 48.3036 6.47863 46.1582 6.30152 43.0549C6.12342 39.9342 6.30731 35.96 6.55896 30.5587Z" fill="#FFC46C" stroke="black" stroke-width="2"/>
<rect x="4.093" y="1.04546" width="187" height="51" rx="14" transform="rotate(2.66747 4.093 1.04546)" fill="#70FFF6" stroke="black" stroke-width="2"/>
<path d="M28.2769 35.1438C27.6775 35.1159 27.2204 34.6141 27.2455 34.0747C27.3256 32.3565 27.3539 32.1776 27.433 30.4795C27.1826 30.2676 27.0577 29.9414 27.0716 29.6418C27.0856 29.3421 27.2385 29.0689 27.5266 28.9021L28.0454 19.0556C28.0705 18.5162 28.6123 18.0609 29.1916 18.0879C29.811 18.1168 30.2681 18.6186 30.243 19.158C30.2132 19.7973 30.1834 20.4366 30.1346 21.055C31.6224 20.0632 34.208 19.1425 36.046 19.2281C38.9828 19.365 40.7793 21.631 40.6583 24.2282C40.4489 28.7233 35.4982 31.4158 30.9431 31.2036C30.5036 31.1832 30.066 31.1227 29.6083 31.0614C29.5176 32.5788 29.5747 32.6415 29.4232 34.1761C29.3781 34.7146 28.9162 35.1736 28.2769 35.1438ZM34.3206 28.7582L34.3406 28.7591L34.3206 28.7582ZM35.972 21.2469C33.9142 21.151 30.9629 22.6152 29.9713 24.1307L29.7223 29.0445C30.12 29.103 30.5187 29.1416 30.9182 29.1603C34.2546 29.3157 38.2997 27.5821 38.4616 24.1058C38.5268 22.7074 37.6502 21.3251 35.972 21.2469ZM43.8888 24.2586C44.5481 24.2893 44.9425 24.8483 44.9137 25.4676C44.9099 25.5475 44.9053 25.6474 44.8816 25.7264C44.5879 26.874 44.316 27.9825 44.2611 29.1612C44.2322 29.7806 44.2614 30.4426 44.4551 31.0123C45.2453 33.3916 47.4332 32.4124 48.6274 30.8463C49.3104 29.9371 49.7821 28.8378 49.9411 28.0043C50.0243 27.5076 50.1075 26.15 50.1907 25.6534C50.3223 24.9788 50.7423 24.5579 51.4615 24.5914C52.2007 24.6258 52.446 25.378 52.4171 25.9974C52.3771 26.8564 52.14 28.5072 52.1 29.3663C52.0386 30.6848 52.117 32.0099 52.2763 33.3187C52.2916 33.4196 52.2879 33.4995 52.2832 33.5994C52.2553 34.1987 51.8097 34.7386 51.1704 34.7088C50.0116 34.6548 50.061 33.596 49.9602 32.7503C48.9054 33.9025 47.5622 34.801 45.9439 34.7256C42.9672 34.5869 41.8834 31.6332 42.0035 29.056C42.0668 27.6975 42.3308 26.3283 42.7319 25.0256C42.8959 24.5127 43.3694 24.2344 43.8888 24.2586ZM60.346 24.1243C62.7634 24.237 64.1822 26.4454 64.0761 28.7229C63.8629 33.298 59.1985 35.8637 55.023 35.6691C54.0241 35.6226 53.5688 35.0808 53.6163 34.0619C53.6293 33.7822 53.6623 33.5035 53.6753 33.2238C53.9465 29.5524 53.9661 28.2719 54.2373 24.6006C54.367 23.105 54.4187 21.5657 54.6074 20.0929C54.6962 19.4764 55.1191 18.9955 55.7783 19.0262C56.4177 19.056 56.8748 19.5578 56.845 20.1972C56.7156 22.9741 56.5771 23.3681 56.3878 26.1423C57.3636 24.9665 58.7478 24.0499 60.346 24.1243ZM59.5151 26.4882C59.4951 26.4873 59.4942 26.5073 59.4742 26.5064C59.4951 26.4873 59.4951 26.4873 59.5151 26.4882ZM55.9092 33.4079C57.8355 33.3175 59.9388 32.4344 61.0531 30.8646C61.7399 29.8754 62.6782 26.4955 60.3208 26.3856C57.6237 26.26 56.0023 31.4101 55.9148 33.288L55.9092 33.4079ZM66.7202 36.0339C66.041 36.0023 65.68 35.585 65.6062 35.021C65.3712 33.188 65.4425 31.2292 65.5281 29.3912C65.6482 26.814 66.0332 22.8476 66.8288 20.382C66.9701 19.9281 67.4807 19.7116 68.0201 19.7367C68.6794 19.7675 69.0566 20.2655 69.0315 20.805C69.0287 20.8649 69.0259 20.9248 69.0022 21.0038C68.3534 23.7566 67.9234 26.5396 67.7912 29.3765C67.7317 30.6551 67.7501 31.9774 67.7895 33.2807C67.8206 33.9028 67.9316 34.5286 67.9037 35.128C67.8795 35.6474 67.3196 36.0618 66.7202 36.0339ZM70.3876 36.4851C68.8892 36.4153 69.3312 34.2335 69.3685 33.4343C69.4709 31.2367 69.6606 28.883 70.2615 26.7286C70.381 26.3137 70.8897 26.1372 71.3692 26.1596C72.0285 26.1903 72.3676 26.6466 72.3453 27.126L72.3179 27.2849C71.9042 29.2878 71.6304 31.2973 71.5354 33.3351C71.4982 34.1342 71.5228 34.8962 71.4865 35.6753C71.4651 36.1348 70.947 36.5111 70.3876 36.4851ZM71.6643 25.4125C71.0849 25.3855 70.5697 24.8409 70.5976 24.2416C70.6255 23.6422 71.1501 23.1261 71.7695 23.1549C72.3688 23.1829 72.8831 23.7474 72.8552 24.3468C72.8263 24.9661 72.2636 25.4404 71.6643 25.4125ZM81.9532 32.8594C82.5726 32.8882 83.006 33.4691 82.9781 34.0684C82.9092 35.5468 79.2628 36.4581 78.0641 36.4022C74.9076 36.2552 73.1984 33.833 73.3381 30.8363C73.4786 27.8195 75.4683 24.6487 78.8047 24.8041C80.0833 24.8637 82.1229 25.7796 82.0512 27.318C82.0224 27.9373 81.4597 28.4116 80.8603 28.3837C80.3609 28.3604 79.9381 27.9803 79.8197 27.5143L79.8359 27.5952L79.8197 27.5143C79.6102 27.2843 79.3189 27.0905 78.9792 27.0747C78.4198 27.0487 78.3199 27.044 77.7712 27.2187L77.7512 27.2177C77.4831 27.3854 77.1979 27.4923 76.9479 27.7009C75.888 28.5324 75.6584 30.0234 75.5998 31.282C75.529 32.8004 76.5501 34.0893 78.1684 34.1647C80.0464 34.2522 81.1341 32.8212 81.9532 32.8594ZM79.7054 27.3889C79.7254 27.3898 79.7244 27.4098 79.7435 27.4307C79.7244 27.4098 79.7244 27.4098 79.7054 27.3889ZM98.0666 27.2833C97.727 27.2674 97.3901 27.1917 97.0505 27.1759C96.2514 27.1386 94.9007 27.336 93.8985 27.7898C92.5083 28.4058 92.5812 28.9898 93.9137 29.6125C95.6583 30.4146 98.7563 30.9593 98.6436 33.3767C98.5022 36.4134 93.6278 37.4677 91.2504 37.357C90.6511 37.329 90.1349 36.8044 90.1638 36.1851C90.1945 35.5258 90.7335 35.1305 91.3546 35.1194C92.1956 35.1185 93.9686 34.8808 95.1525 34.3953C96.5398 33.8393 96.8512 33.1731 95.2581 32.5583C93.5279 31.877 90.4276 30.9517 90.5412 28.5144C90.6612 25.9372 95.0961 24.8624 97.1538 24.9583C97.9729 24.9964 99.1698 25.0922 99.1176 26.211C99.0934 26.7304 98.606 27.3084 98.0666 27.2833ZM101.844 26.1578C102.443 26.1858 102.959 26.7303 102.931 27.3297C102.923 27.4895 102.897 27.6284 102.889 27.7882C103.909 26.9548 105.235 26.4359 106.573 26.4983C109.35 26.6277 110.662 28.9913 110.543 31.5485C110.342 35.8438 106.154 37.2104 102.518 37.041L102.279 37.0298C102.197 38.3475 102.173 39.7278 102.012 41.0418C101.944 41.6392 101.479 42.1582 100.84 42.1284C100.22 42.0995 99.7451 41.5568 99.7739 40.9375C99.8977 38.2804 100.121 35.6279 100.285 32.9727C100.414 31.0566 100.485 29.1178 100.673 27.2245C100.741 26.627 101.225 26.129 101.844 26.1578ZM104.06 29.7249C102.738 31.0247 102.244 32.6035 102.424 34.7741L102.863 34.7946C103.762 34.8365 105.006 34.7943 105.843 34.4329C105.882 34.4548 106.109 34.3252 106.149 34.307C107.356 33.7626 108.198 32.8808 108.262 31.5023C108.387 28.8252 105.969 27.8717 104.06 29.7249ZM116.868 38.2902C113.991 38.1562 112.017 35.4213 112.145 32.6643C112.287 29.6076 114.804 26.3011 118.1 26.4547C119.759 26.532 121.303 27.7652 121.221 29.5233C121.11 31.9007 118.418 32.9566 116.36 32.8607C115.681 32.829 114.988 32.6566 114.383 32.3281C114.377 32.4679 114.35 32.6068 114.343 32.7667C114.288 33.9454 114.876 35.074 115.83 35.659C117.892 36.9364 117.99 34.8387 119.748 34.9206C120.368 34.9494 120.886 35.4341 120.856 36.0734C120.785 37.5917 118.107 38.3479 116.868 38.2902ZM118.572 30.0806C119.471 29.2616 118.407 28.4712 117.394 28.7243C116.564 28.9259 115.77 29.6297 115.281 30.2476L115.339 30.2904C115.553 30.4205 115.825 30.5933 116.724 30.6352C116.944 30.6454 117.327 30.5832 117.673 30.4792C118.038 30.3761 118.385 30.2321 118.572 30.0806ZM125.254 37.7399C123.276 37.6477 122.381 35.804 122.463 34.046C122.604 31.0092 125.448 27.9783 128.585 28.1245C129.044 28.1459 129.52 28.2481 129.929 28.4874C130.157 28.3179 130.421 28.2501 130.701 28.2631C131.36 28.2938 131.776 28.8137 131.746 29.453C131.742 29.5529 131.738 29.6328 131.714 29.7118C131.318 31.3352 131.023 32.9432 130.944 34.6413C130.893 35.7401 131.06 36.8692 131.009 37.968C130.985 38.4874 130.324 38.9171 129.845 38.8948C128.526 38.8333 128.697 36.8792 128.681 35.9374C127.817 36.8782 126.592 37.8022 125.254 37.7399ZM124.76 33.7325C124.637 34.2073 124.6 35.4469 125.379 35.4832C126.997 35.5586 128.668 31.9324 129.063 30.7496C128.952 30.1237 128.02 30.3606 127.512 30.5171C126.129 30.9933 125.027 32.2834 124.76 33.7325ZM133.468 39.2638C132.869 39.2359 132.373 38.6922 132.401 38.0929C132.477 36.4746 132.795 34.7876 132.972 33.1541C133.313 29.7062 133.22 29.9822 133.382 26.5059C133.426 25.547 133.128 23.3507 134.646 23.4215C135.466 23.4596 135.678 24.0502 135.708 24.6923C135.884 27.8038 135.589 28.9714 135.419 30.9055C136.491 30.2347 140.383 27.4929 141.003 27.5217C141.602 27.5496 142.158 28.0761 142.129 28.6954C142.11 29.115 141.834 29.4425 141.523 29.6683C140.238 30.6095 137.997 31.8666 136.673 32.7859C137.764 33.4374 141.994 36.3174 141.936 37.576C141.907 38.1954 141.404 38.6725 140.785 38.6436C140.465 38.6287 140.191 38.4958 139.98 38.2858C138.41 36.7511 136.963 35.5825 135.073 34.4733C134.955 35.7091 134.855 36.9859 134.659 38.1981C134.55 38.8137 134.127 39.2945 133.468 39.2638ZM144.545 39.9401C143.047 39.8703 143.489 37.6885 143.526 36.8893C143.629 34.6917 143.818 32.338 144.419 30.1836C144.539 29.7687 145.048 29.5922 145.527 29.6146C146.186 29.6453 146.525 30.1016 146.503 30.581L146.476 30.7399C146.062 32.7428 145.788 34.7523 145.693 36.7901C145.656 37.5892 145.681 38.3512 145.644 39.1303C145.623 39.5898 145.105 39.9661 144.545 39.9401ZM145.822 28.8675C145.243 28.8405 144.728 28.2959 144.755 27.6966C144.783 27.0972 145.308 26.5811 145.927 26.6099C146.527 26.6379 147.041 27.2024 147.013 27.8018C146.984 28.4211 146.421 28.8954 145.822 28.8675ZM148.493 39.5433C147.873 39.5145 147.397 38.9917 147.426 38.3724C147.556 35.5755 147.708 32.7395 147.959 29.9481C148.007 29.3297 148.49 28.8516 149.129 28.8814C149.629 28.9047 150.034 29.2439 150.151 29.7299L150.171 29.7308C150.737 29.1766 151.492 28.8714 152.272 28.9077C155.508 29.0585 155.56 33.1053 155.451 35.4427C155.394 36.6614 155.31 37.5985 155.115 38.7907C155.026 39.4072 154.583 39.8872 153.924 39.8564C153.305 39.8276 152.828 39.3049 152.857 38.6855C152.915 37.4469 153.158 36.5172 153.217 35.2586C153.239 34.7791 153.321 33.4614 153.109 32.4304C152.435 29.2757 150.5 32.5492 150.293 33.9811C150.084 35.473 149.83 37.0429 149.663 38.4767C149.596 39.0742 149.112 39.5722 148.493 39.5433ZM159.701 45.9319C158.582 45.8798 156.234 46.0106 156.307 44.4323C156.329 43.9528 156.894 43.4385 157.373 43.4609C158.173 43.4981 158.986 43.6561 159.805 43.6943C160.564 43.7297 161.546 43.7154 162.379 43.4538C163.864 42.9624 164.202 42.1373 163.283 40.813C162.813 40.1505 162.229 39.3824 162.061 38.6739C161.696 38.777 161.294 38.8183 160.914 38.8006C158.677 38.6964 156.885 36.7509 156.989 34.5133C157.148 31.117 160.996 28.8737 164.113 29.0189C165.052 29.0626 166.311 29.1013 166.253 30.3599C166.246 30.4998 166.22 30.6387 166.153 30.7757C166.405 31.3881 166.486 32.2328 166.455 32.8921C166.367 34.79 163.763 37.3917 164.595 38.872C165.284 39.9853 166.231 40.7101 166.163 42.1685C166.011 45.425 162.178 46.0473 159.701 45.9319ZM160.919 36.5584C163.236 36.6664 164.901 33.16 163.989 31.2555C162.071 31.1662 159.344 32.5408 159.243 34.6984C159.2 35.6174 159.98 36.5146 160.919 36.5584Z" fill="black"/>
</svg>
