<svg width="78" height="66" viewBox="0 0 78 66" fill="none" xmlns="http://www.w3.org/2000/svg">
<g id="Group">
<path id="Vector 144" d="M14.6649 10.421C12.928 10.421 8.58592 11.7237 7.28329 15.6316L4.67802 20.4079L1.63855 26.0526L3.37539 34.3026L9.88855 40.3816C12.2043 40.671 17.7043 41.3368 21.178 41.6842C21.6122 46.4605 25.9543 49.9342 35.0728 50.3684C42.3675 50.7158 47.0859 60.0658 48.5333 64.6973L54.178 65.1316V61.6579C54.0333 60.0658 54.0912 56.7947 55.4807 56.4473C62.428 57.4895 67.0596 51.9605 68.507 49.0658C67.928 47.7631 67.5517 44.6368 70.678 42.5526C74.5859 39.9473 75.8885 33.4342 75.4543 30.8289C75.0201 28.2237 76.757 25.1842 75.4543 22.1447C74.1517 19.1052 71.1122 17.3684 70.678 16.9342C70.2438 16.5 69.3754 13.4605 69.3754 12.5921C69.3754 11.7237 68.507 11.7237 67.2043 10.8552C65.9017 9.98682 66.3359 9.98682 66.3359 9.55261C66.3359 9.1184 64.5991 9.1184 64.1649 8.68419C63.7307 8.24998 63.2964 8.68419 62.428 8.24998C61.5596 7.81577 60.6912 7.81577 59.8228 7.38156C58.9543 6.94735 59.3885 6.94735 58.9543 6.51314C58.5201 6.07893 58.5201 5.64472 58.0859 5.21051C57.7386 4.86314 57.0728 4.48682 56.7833 4.34209C56.3491 4.19735 55.4807 3.82103 55.4807 3.47366C55.4807 3.03945 55.0464 3.47366 54.6122 3.47366H52.007H50.7043C49.8359 3.18419 48.0122 2.5184 47.6649 2.17103C47.3175 1.82367 45.4938 1.44735 44.6254 1.30261L42.8885 1.73682C42.3096 1.59209 40.3701 1.56314 37.2438 2.60524C34.2043 0.434188 28.1254 2.17103 24.6517 6.07893C15.5333 4.77629 16.4017 10.421 14.6649 10.421Z" fill="#4BFFC9"/>
<path id="Vector" d="M77.3649 25.7053C77.3649 21.8842 75.107 18.4105 71.6333 16.8474C70.7649 11.4632 66.3359 7.29474 60.9517 6.86053C59.4754 3.82105 56.3491 1.82368 52.8754 1.82368C52.4412 1.82368 52.007 1.91053 51.5728 1.91053H51.4859C51.0517 1.99737 50.5307 2.08421 50.0965 2.2579C48.3596 0.868421 46.1886 0 43.9307 0C42.107 0 40.2833 0.521053 38.807 1.56316C37.2438 0.868421 35.507 0.521053 33.6833 0.521053C30.1228 0.521053 26.7359 1.99737 24.3912 4.68947C23.6096 4.51579 22.9149 4.42895 22.1333 4.42895C19.007 4.42895 16.1412 5.99211 14.4912 8.68421C14.4044 8.68421 14.2307 8.68421 14.1438 8.68421C13.9701 8.68421 13.7965 8.68421 13.7096 8.68421C13.5359 8.68421 13.3623 8.77105 13.1886 8.77105C13.0149 8.77105 12.928 8.8579 12.7544 8.8579C12.5807 8.8579 12.407 8.94474 12.2333 9.03158C12.0596 9.03158 11.9728 9.11842 11.7991 9.11842C11.6254 9.20526 11.4517 9.20526 11.3649 9.29211C11.1912 9.37895 11.0175 9.37895 10.9307 9.46579C10.8438 9.55263 10.6701 9.55263 10.5833 9.63947C10.4096 9.72632 10.2359 9.81316 10.0623 9.9C7.02278 11.55 4.93857 14.7632 4.67804 18.4105V18.4974C1.8991 21.1026 0.335938 24.8368 0.335938 28.6579C0.335938 36.3868 6.67541 42.7263 14.4044 42.7263C15.1859 42.7263 16.0544 42.6395 16.8359 42.5526C17.878 42.9 19.007 43.0737 20.1359 43.1605C22.3938 48.7184 26.9096 51.6711 33.0754 51.6711C38.9807 51.6711 46.1017 57.6632 46.1017 64.6974V66H56.0017L54.8728 57.9237C61.7333 58.6184 68.2465 54.1895 69.9833 47.3289C70.2438 46.1132 70.4175 44.8974 70.4175 43.7684C74.4991 42.2921 77.3649 38.3842 77.3649 33.9553C77.3649 32.4789 77.1044 31.0895 76.4965 29.7868C77.0175 28.4842 77.3649 27.0947 77.3649 25.7053ZM73.6307 30.3947C74.2386 31.5237 74.4991 32.6526 74.4991 33.9553C74.4991 36.9079 72.7623 39.6 70.0702 40.8158C68.9412 35.6921 64.9465 31.5237 59.8228 30.2211C59.0412 30.0474 58.2596 30.4816 58.0859 31.2632C57.9123 32.0447 58.3465 32.8263 59.128 33C63.7307 34.1289 67.1175 38.0368 67.5517 42.7263C67.7254 44.0289 67.5517 45.3316 67.2912 46.6342C65.7281 52.7132 59.6491 56.3605 53.5701 54.7974L51.5728 54.2763L52.7886 63.1342H48.7938C47.9254 54.9711 39.7623 48.6316 32.9886 48.6316C28.2991 48.6316 24.9991 46.7211 23.0886 42.9C23.0886 42.8132 23.0886 42.7263 23.0017 42.6395C21.5254 39.6 22.828 35.8658 25.9544 34.3895C26.6491 34.0421 26.9965 33.1737 26.6491 32.479C26.3017 31.7842 25.4333 31.4368 24.7386 31.7842C21.4386 33.3474 19.6149 36.6474 19.6149 40.0342C18.8333 39.9474 18.0517 39.7737 17.357 39.5132L17.0096 39.3395L16.6623 39.4263C15.9675 39.6 15.1859 39.6868 14.4044 39.6868C8.23857 39.6868 3.11488 34.65 3.11488 28.3974C3.11488 26.1395 3.80962 23.8816 5.11225 22.0579C6.15436 25.3579 8.93331 27.9632 12.3201 28.8316C12.0596 29.2658 11.8859 29.7 11.7991 30.1342C11.4517 31.6974 11.6254 33.2605 12.4938 34.65C12.7544 35.0842 13.1886 35.3447 13.7096 35.3447C13.9701 35.3447 14.2307 35.2579 14.4044 35.1711C15.0991 34.7368 15.2728 33.8684 14.9254 33.2605C14.4912 32.5658 14.4044 31.6974 14.578 30.9158C14.7517 30.1342 15.2728 29.4395 15.9675 29.0053C16.6623 28.5711 16.8359 27.7026 16.4886 27.0947C16.1412 26.5737 15.5333 26.3132 14.9254 26.4868C10.8438 26.4 7.45699 23.0132 7.45699 18.9316C7.45699 14.7632 10.8438 11.3763 15.0123 11.3763C15.0991 11.3763 15.0991 11.3763 15.1859 11.3763L16.3149 11.4632L16.7491 10.5947C17.7912 8.42369 19.9623 7.12105 22.307 7.12105C23.0886 7.12105 23.7833 7.29474 24.5649 7.55526L25.5201 7.90263L26.128 7.03421C27.9517 4.60263 30.8175 3.21316 33.857 3.21316C35.4201 3.21316 37.0701 3.64737 38.4596 4.34211L39.328 4.77632L40.0228 4.16842C41.1517 3.21316 42.5412 2.69211 44.0175 2.69211C45.2333 2.69211 46.4491 3.03947 47.4044 3.73421C45.3201 5.38421 43.9307 7.90263 43.9307 10.7684C43.9307 11.55 44.5386 12.1579 45.3201 12.1579C46.1017 12.1579 46.7096 11.55 46.7096 10.7684C46.7096 8.42368 48.0123 6.42632 49.8359 5.38421L50.2701 5.21053C51.1386 4.86316 52.007 4.60263 52.8754 4.60263C55.4807 4.60263 57.7386 6.25263 58.6938 8.68421L59.0412 9.63947H59.9965C64.6859 9.63947 68.5938 13.3737 68.9412 17.9763L69.0281 18.9316L69.8965 19.1921C72.6754 20.1474 74.5859 22.7526 74.5859 25.7053C74.5859 26.8342 74.3254 28.05 73.7175 29.0053L73.3702 29.7L73.6307 30.3947ZM43.757 37.6026C43.757 34.9974 42.4544 32.5658 40.2833 31.0895C36.5491 29.3526 33.9438 25.7921 33.4228 21.7105C33.3359 21.1026 33.7701 20.4947 34.378 20.4079C34.9859 20.3211 35.5938 20.7553 35.6807 21.3632C36.2017 25.0974 38.7201 28.2237 42.2807 29.4395C44.7991 30.3079 47.4912 30.1342 49.9228 29.0053C52.3544 27.8763 54.0912 25.7921 54.9596 23.2737C55.1333 22.6658 55.828 22.4053 56.4359 22.5789C57.0438 22.7526 57.3044 23.4474 57.1307 24.0553C56.0886 27.1816 53.8307 29.6132 50.878 31.0026C49.228 31.7842 47.4044 32.2184 45.5807 32.2184C45.2333 32.2184 44.8859 32.2184 44.4517 32.1316C45.407 33.6947 46.0149 35.5184 46.0149 37.5158C46.0149 38.1237 45.4938 38.6447 44.8859 38.6447C44.278 38.6447 43.757 38.2105 43.757 37.6026ZM65.207 24.5763C65.207 25.1842 64.6859 25.7053 64.078 25.7053C63.4701 25.7053 62.9491 25.1842 62.9491 24.5763C62.9491 19.4526 58.7807 15.2842 53.657 15.2842C53.0491 15.2842 52.528 14.7632 52.528 14.1553C52.528 13.5474 53.0491 13.0263 53.657 13.0263C59.9965 13.0263 65.207 18.2368 65.207 24.5763ZM35.3333 12.9395C35.3333 12.3316 35.8544 11.8105 36.4623 11.8105C41.4123 11.8105 45.4938 15.8053 45.4938 20.8421C45.4938 21.45 44.9728 21.9711 44.3649 21.9711C43.757 21.9711 43.2359 21.45 43.2359 20.8421C43.2359 17.1079 40.1965 14.0684 36.4623 14.0684C35.8544 14.0684 35.3333 13.5474 35.3333 12.9395ZM32.6412 38.7316C32.4675 39.0789 32.0333 39.2526 31.6859 39.2526C31.5123 39.2526 31.2517 39.1658 31.078 39.0789C30.557 38.7316 30.3833 38.0368 30.7307 37.5158C32.6412 34.4763 31.6859 30.4816 28.6465 28.5711C28.1254 28.2237 27.9517 27.5289 28.2991 27.0079C28.6465 26.4868 29.3412 26.3132 29.8623 26.6605C33.9438 29.2658 35.1596 34.65 32.6412 38.7316ZM31.5991 18.7579C29.8623 18.7579 28.2991 17.9763 27.0833 16.8474C25.0859 19.7132 21.7859 21.2763 18.4859 21.2763C16.7491 21.2763 14.9254 20.8421 13.2754 19.8868C12.7544 19.5395 12.5807 18.8447 12.8412 18.3237C13.1886 17.8026 13.8833 17.6289 14.4044 17.8895C18.3123 20.1474 23.3491 18.8447 25.6938 14.85C25.2596 13.8947 24.9991 12.8526 24.9991 11.8105C24.9991 11.2026 25.5201 10.6816 26.128 10.6816C26.7359 10.6816 27.257 11.2026 27.257 11.8105C27.1701 14.2421 29.1675 16.3263 31.5991 16.4132C32.207 16.4132 32.728 16.9342 32.728 17.5421C32.728 18.3237 32.207 18.7579 31.5991 18.7579ZM58.0859 40.8158C58.607 41.1632 58.6938 41.8579 58.3465 42.3789C56.1754 45.5053 52.7017 47.2421 49.1412 47.2421C46.9701 47.2421 44.7991 46.6342 42.8886 45.3316C42.3675 44.9842 42.2807 44.2895 42.628 43.7684C42.9754 43.2474 43.6702 43.1605 44.1912 43.5079C46.1886 44.8105 48.5333 45.3316 50.878 44.8974C53.2228 44.4632 55.2202 43.1605 56.6096 41.1632C56.8702 40.6421 57.5649 40.4684 58.0859 40.8158Z" fill="black"/>
</g>
</svg>
