<svg width="90" height="110" viewBox="0 0 90 110" fill="none" xmlns="http://www.w3.org/2000/svg">
<g id="Group">
<path id="Vector 145" d="M53.0886 9.69375L39.7067 11.8346L31.0978 18.0988L24.4916 27.4636L23.0205 44.2333L26.2906 58.8191L25.1499 72.5631L30.9457 73.9165L45.4481 36.7765L56.5397 25.9204L56.9651 41.8165L43.1552 79.2122L49.1321 82.2064L50.155 79.4364L57.0169 69.3791L66.8299 61.9856L73.0308 57.9799L78.2519 48.1036L79.9358 39.282L78.2317 26.8484L71.0192 18.6762L65.5538 14.297L53.0886 9.69375Z" fill="#EDFFA5"/>
<path id="Vector 146" d="M56.3578 24.2795L57.4757 40.4315L44.7547 36.5207L56.3578 24.2795Z" fill="#C48F69"/>
<path id="Vector 147" d="M56.273 41.5608L44.5003 37.2133L30.6904 74.609L43.1557 79.2123L56.273 41.5608Z" fill="white"/>
<g id="Group_2">
<path id="Vector" d="M48.8639 83.3826L23.621 74.0606C22.8554 73.7779 22.4647 72.9297 22.7474 72.1641L23.3208 70.6114C25.8737 63.6984 25.8494 56.4639 23.2541 50.2397C20.3228 43.2104 20.1633 35.3972 22.8061 28.2408C25.764 20.2309 32.0207 13.8312 39.9711 10.6821C48.0296 7.48996 56.7763 7.88266 64.5819 11.7766C77.0758 18.0089 83.6748 32.3624 80.27 45.9066C78.1668 54.2782 72.8501 61.125 65.2967 65.1846C58.7495 68.7043 53.8577 74.1218 51.5241 80.441L50.7604 82.509C50.4777 83.2746 49.6294 83.6653 48.8639 83.3826ZM26.0289 71.8021L48.5018 80.1011L48.7541 79.418C51.3374 72.4225 56.7161 66.444 63.8991 62.5843C70.7114 58.9211 75.5089 52.7433 77.4063 45.1872C80.475 32.9775 74.5269 20.0372 63.2647 14.4195C56.2103 10.8968 48.3268 10.5477 41.0583 13.4276C33.8874 16.2681 28.2439 22.0397 25.5761 29.2638C23.1926 35.7182 23.3361 42.7631 25.9792 49.1034C28.864 56.0171 28.903 64.0194 26.0909 71.6343L26.0289 71.8021Z" fill="black"/>
</g>
<g id="Group_3">
<path id="Vector_2" d="M28.7379 99.0714C21.9778 96.575 18.5083 89.0427 21.0048 82.2826L24.5027 72.8106C24.7854 72.045 25.6336 71.6543 26.3992 71.937L48.1511 79.9698C48.9167 80.2525 49.3074 81.1007 49.0247 81.8663L45.5268 91.3383C43.0303 98.0984 35.498 101.568 28.7379 99.0714ZM26.7613 75.2185L23.7748 83.3055C21.8423 88.5386 24.5278 94.3689 29.7609 96.3014C34.9939 98.2339 40.8242 95.5484 42.7567 90.3154L45.7432 82.2284L26.7613 75.2185Z" fill="black"/>
</g>
<g id="Group_4">
<path id="Vector_3" d="M42.3859 80.8133L30.0802 76.2689C29.3147 75.9862 28.924 75.138 29.2067 74.3724L43.2343 36.387C43.517 35.6214 44.3653 35.2307 45.1308 35.5134L57.4365 40.0578C58.202 40.3405 58.5927 41.1887 58.31 41.9543L44.2824 79.9397C43.9997 80.7053 43.1514 81.096 42.3859 80.8133ZM32.4882 74.0103L42.0238 77.5317L55.0285 42.3164L45.4929 38.795L32.4882 74.0103Z" fill="black"/>
</g>
<g id="Group_5">
<path id="Vector_4" d="M56.4128 42.8278L44.1072 38.2835C43.6487 38.1141 43.3038 37.7286 43.1858 37.2531C43.0674 36.779 43.1929 36.2766 43.5193 35.913L55.4033 22.6659C55.8082 22.2144 56.446 22.0565 57.0141 22.2663C57.5822 22.476 57.9642 23.0106 57.9786 23.6169L58.4003 41.4084C58.412 41.8969 58.1809 42.3603 57.7827 42.6436C57.384 42.9283 56.8714 42.9971 56.4128 42.8278ZM47.1698 36.2666L55.3961 39.3045L55.115 27.4087L47.1698 36.2666Z" fill="black"/>
</g>
<g id="Group_6">
<path id="Vector_5" d="M36.2325 78.5411C35.4669 78.2584 35.0762 77.4102 35.3589 76.6446L49.3866 38.6592C49.6693 37.8936 50.5175 37.5029 51.2831 37.7856C52.0486 38.0684 52.4393 38.9166 52.1566 39.6821L38.129 77.6676C37.8463 78.4331 36.998 78.8238 36.2325 78.5411Z" fill="black"/>
</g>
<g id="Group_7">
<path id="Vector_6" d="M50.8322 92.0853L44.5373 89.7607C43.7718 89.4779 43.3811 88.6297 43.6638 87.8642C43.9465 87.0986 44.7947 86.7079 45.5603 86.9906L51.8551 89.3152C52.6207 89.5979 53.0114 90.4462 52.7287 91.2117C52.446 91.9773 51.5977 92.368 50.8322 92.0853Z" fill="black"/>
</g>
<g id="Group_8">
<path id="Vector_7" d="M22.7843 81.727L16.4894 79.4024C15.7239 79.1197 15.3332 78.2714 15.6159 77.5059C15.8986 76.7403 16.7468 76.3496 17.5124 76.6323L23.8072 78.9569C24.5728 79.2397 24.9635 80.0879 24.6808 80.8534C24.3981 81.619 23.5498 82.0097 22.7843 81.727Z" fill="black"/>
</g>
</g>
</svg>
