<svg width="84" height="77" viewBox="0 0 84 77" fill="none" xmlns="http://www.w3.org/2000/svg">
<path d="M19 23.9495C19.179 23.9815 19.3615 23.9976 19.5446 23.9976C19.9064 24.0094 20.2648 23.9349 20.5776 23.783C21.3181 23.4673 22.1381 23.3026 22.9701 23.3026C23.8021 23.3026 24.6222 23.4673 25.3627 23.783C25.673 23.9352 26.0293 24.0101 26.3892 23.9989C26.5953 24.0007 26.8008 23.9792 27 23.9349V12H19V23.9495Z" fill="#FFEBCD"/>
<path d="M50 58L61.5414 77H68L56.2632 58H50Z" fill="black"/>
<path d="M23.9842 26.2459C23.6703 26.0845 23.319 26 22.962 26C22.605 26 22.2537 26.0845 21.9398 26.2459C21.2035 26.6198 20.3787 26.8087 19.5438 26.7945C19.3518 26.7945 19.2222 26.7844 19 26.77V40.2023C19 41.2095 19.4214 42.1754 20.1716 42.8877C20.9217 43.5999 21.9391 44 23 44C24.0609 44 25.0783 43.5999 25.8284 42.8877C26.5786 42.1754 27 41.2095 27 40.2023V26.7629C26.7778 26.781 26.6064 26.7939 26.3884 26.7939C25.551 26.8082 24.7236 26.6196 23.9842 26.2459Z" fill="#8850FF"/>
<path d="M16 77H22.4586L34 58H27.7367L16 77Z" fill="black"/>
<path d="M0 55H84V0H0V55ZM3.26214 4.65074C3.26214 4.27534 3.4125 3.91531 3.68015 3.64987C3.9478 3.38442 4.31081 3.23529 4.68932 3.23529H79.3107C79.6892 3.23529 80.0522 3.38442 80.3199 3.64987C80.5875 3.91531 80.7379 4.27534 80.7379 4.65074V50.3493C80.7379 50.7247 80.5875 51.0847 80.3199 51.3501C80.0522 51.6156 79.6892 51.7647 79.3107 51.7647H4.68932C4.31081 51.7647 3.9478 51.6156 3.68015 51.3501C3.4125 51.0847 3.26214 50.7247 3.26214 50.3493V4.65074Z" fill="black"/>
<path d="M77 6H7V49H77V6ZM44.0018 18.5755H53.5995C53.9687 18.5755 54.3228 18.7251 54.5838 18.9913C54.8449 19.2576 54.9916 19.6187 54.9916 19.9953C54.9916 20.3718 54.8449 20.733 54.5838 20.9992C54.3228 21.2655 53.9687 21.4151 53.5995 21.4151H44.0018C43.6326 21.4151 43.2785 21.2655 43.0174 20.9992C42.7564 20.733 42.6097 20.3718 42.6097 19.9953C42.6097 19.6187 42.7564 19.2576 43.0174 18.9913C43.2785 18.7251 43.6326 18.5755 44.0018 18.5755ZM29.2727 40.3619C29.2727 42.0833 28.6023 43.7342 27.4089 44.9514C26.2154 46.1686 24.5968 46.8524 22.9091 46.8524C21.2213 46.8524 19.6027 46.1686 18.4093 44.9514C17.2159 43.7342 16.5455 42.0833 16.5455 40.3619V10.0984C16.5482 9.7153 16.6971 9.34837 16.9607 9.07548C17.2244 8.80259 17.5819 8.64523 17.9574 8.63679H27.8608C28.2361 8.64583 28.5933 8.80339 28.8568 9.07615C29.1203 9.34891 29.2694 9.71549 29.2727 10.0984V40.3619ZM69.5086 37.6415H44.0018C43.6326 37.6415 43.2785 37.4919 43.0174 37.2257C42.7564 36.9594 42.6097 36.5983 42.6097 36.2217C42.6097 35.8451 42.7564 35.484 43.0174 35.2177C43.2785 34.9515 43.6326 34.8019 44.0018 34.8019H69.5086C69.8778 34.8019 70.2319 34.9515 70.4929 35.2177C70.754 35.484 70.9007 35.8451 70.9007 36.2217C70.9007 36.5983 70.754 36.9594 70.4929 37.2257C70.2319 37.4919 69.8778 37.6415 69.5086 37.6415ZM69.5086 29.5283H44.0018C43.6326 29.5283 43.2785 29.3787 43.0174 29.1125C42.7564 28.8462 42.6097 28.485 42.6097 28.1085C42.6097 27.7319 42.7564 27.3708 43.0174 27.1045C43.2785 26.8383 43.6326 26.6887 44.0018 26.6887H69.5086C69.8778 26.6887 70.2319 26.8383 70.4929 27.1045C70.754 27.3708 70.9007 27.7319 70.9007 28.1085C70.9007 28.485 70.754 28.8462 70.4929 29.1125C70.2319 29.3787 69.8778 29.5283 69.5086 29.5283Z" fill="#FFC875"/>
</svg>
