<svg width="65" height="92" viewBox="0 0 65 92" fill="none" xmlns="http://www.w3.org/2000/svg">
<g id="Group 83">
<rect id="Rectangle 38" x="17.3357" y="83.7025" width="30.1859" height="5.65986" fill="#676767"/>
<rect id="Rectangle 37" x="17.3357" y="2.57776" width="28.2993" height="60.3719" rx="14.1497" fill="#DC925C"/>
<path id="Vector" d="M58.8407 32.7637C58.6521 32.1977 59.5954 28.9905 56.9541 28.9905C54.5015 28.9905 55.2561 32.1977 55.0675 32.7637H49.4076V17.6708C49.4076 8.23765 41.8611 0.691162 32.428 0.691162C22.9949 0.691162 15.4484 8.23765 15.4484 17.6708V32.7637H9.78857V30.8771C9.78857 28.4245 6.01533 28.4245 6.01533 30.8771V32.7637C4.31737 32.9524 0.355469 31.8204 0.355469 34.6503C0.355469 35.7823 1.11012 36.537 2.24209 36.537H6.01533V47.8567C6.01533 61.8177 16.7691 73.1374 30.5414 74.0807V79.9293H21.1083C17.901 79.9293 15.4484 82.3819 15.4484 85.5891C15.6371 87.2871 14.5051 91.249 17.3351 91.249C44.8797 90.4943 49.4076 92.9469 49.4076 89.3624V85.5891C49.4076 82.3819 46.955 79.9293 43.7478 79.9293H34.3146V74.0807C48.087 73.1374 58.8407 61.629 58.8407 47.8567V36.537C60.5387 36.3483 64.5006 37.4803 64.5006 34.6503C64.5006 31.8204 60.5387 32.9524 58.8407 32.7637ZM45.6344 87.4757H19.2217C19.4103 86.9097 18.467 83.7025 21.1083 83.7025H43.7478C46.2004 83.7025 45.4457 86.9097 45.6344 87.4757ZM19.2217 17.6708C19.2217 10.3129 25.0702 4.4644 32.428 4.4644C39.7859 4.4644 45.6344 10.3129 45.6344 17.6708V21.444C40.9178 21.8213 36.2013 20.312 36.2013 23.3306C36.2013 26.3492 40.9178 24.8399 45.6344 25.2172V32.7637C40.9178 33.141 36.2013 31.6317 36.2013 34.6503C36.2013 37.6689 40.9178 36.1596 45.6344 36.537V44.0834C40.9178 44.4608 36.2013 42.9515 36.2013 45.9701C36.2013 48.9887 40.9178 47.4794 45.6344 47.8567C45.6344 55.2145 39.7859 61.063 32.428 61.063C25.0702 61.063 19.2217 55.2145 19.2217 47.8567V17.6708ZM55.0675 47.8567C55.0675 60.3084 44.8797 70.4961 32.428 70.4961C19.9763 70.4961 9.78857 60.3084 9.78857 47.8567V36.537H15.4484V47.8567C15.4484 57.2898 22.9949 64.8363 32.428 64.8363C41.8611 64.8363 49.4076 57.2898 49.4076 47.8567V36.537H55.0675V47.8567Z" fill="black"/>
</g>
</svg>
