<svg width="57" height="60" viewBox="0 0 57 60" fill="none" xmlns="http://www.w3.org/2000/svg">
<g id="Group 122">
<path id="Rectangle 38" d="M1.5 31C1.5 15.8122 13.8122 3.5 29 3.5C44.1878 3.5 56.5 15.8122 56.5 31V32C56.5 47.1878 44.1878 59.5 29 59.5C13.8122 59.5 1.5 47.1878 1.5 32V31Z" fill="black" stroke="black"/>
<path id="Rectangle 39" d="M1 28C1 13.0883 13.0883 1 28 1C42.9117 1 55 13.0883 55 28V29C55 43.9117 42.9117 56 28 56C13.0883 56 1 43.9117 1 29V28Z" fill="white" stroke="black" stroke-width="2"/>
<path id="Vector" d="M33.869 30.3428L34.5956 25.7301H30.1194V22.7318C30.1194 21.4705 30.7444 20.238 32.7426 20.238H34.8063V16.3099C33.6045 16.1184 32.3902 16.0149 31.1731 16C27.489 16 25.0838 18.2127 25.0838 22.2128V25.7301H21V30.3428H25.0838V41.5H30.1194V30.3428H33.869Z" fill="#337FFF"/>
</g>
</svg>
