<svg width="57" height="60" viewBox="0 0 57 60" fill="none" xmlns="http://www.w3.org/2000/svg">
<g id="Group 121">
<path id="Rectangle 40" d="M1.5 31C1.5 15.8122 13.8122 3.5 29 3.5C44.1878 3.5 56.5 15.8122 56.5 31V32C56.5 47.1878 44.1878 59.5 29 59.5C13.8122 59.5 1.5 47.1878 1.5 32V31Z" fill="black" stroke="black"/>
<path id="Rectangle 41" d="M1 28C1 13.0883 13.0883 1 28 1C42.9117 1 55 13.0883 55 28V29C55 43.9117 42.9117 56 28 56C13.0883 56 1 43.9117 1 29V28Z" fill="white" stroke="black" stroke-width="2"/>
<g id="Group 116">
<path id="Vector" d="M23.2897 28.925C23.2897 26.3616 25.3684 24.283 27.9334 24.283C30.4983 24.283 32.5782 26.3616 32.5782 28.925C32.5782 31.4884 30.4983 33.5671 27.9334 33.5671C25.3684 33.5671 23.2897 31.4884 23.2897 28.925ZM20.7788 28.925C20.7788 32.8742 23.9819 36.0753 27.9334 36.0753C31.8849 36.0753 35.088 32.8742 35.088 28.925C35.088 24.9759 31.8849 21.7747 27.9334 21.7747C23.9819 21.7747 20.7788 24.9759 20.7788 28.925ZM33.6992 21.4912C33.6991 21.8217 33.797 22.1448 33.9806 22.4196C34.1643 22.6945 34.4253 22.9088 34.7308 23.0354C35.0362 23.162 35.3724 23.1952 35.6968 23.1309C36.0211 23.0665 36.3191 22.9075 36.553 22.6739C36.787 22.4403 36.9463 22.1426 37.011 21.8185C37.0756 21.4944 37.0426 21.1584 36.9162 20.853C36.7898 20.5476 36.5756 20.2866 36.3007 20.1028C36.0258 19.9191 35.7026 19.821 35.3719 19.8208H35.3712C34.928 19.821 34.5029 19.9971 34.1894 20.3103C33.8759 20.6234 33.6996 21.0482 33.6992 21.4912ZM22.3043 40.2597C20.9458 40.1978 20.2075 39.9717 19.7168 39.7806C19.0663 39.5275 18.6021 39.2261 18.1141 38.739C17.6261 38.252 17.3241 37.7886 17.0719 37.1384C16.8806 36.6483 16.6544 35.9101 16.5926 34.5525C16.5251 33.0847 16.5116 32.6438 16.5116 28.9251C16.5116 25.2065 16.5262 24.7668 16.5926 23.2978C16.6545 21.9401 16.8824 21.2034 17.0719 20.7118C17.3252 20.0617 17.6268 19.5978 18.1141 19.1101C18.6015 18.6224 19.0652 18.3205 19.7168 18.0685C20.2073 17.8774 20.9458 17.6512 22.3043 17.5895C23.773 17.522 24.2142 17.5085 27.9334 17.5085C31.6526 17.5085 32.0942 17.5231 33.5641 17.5895C34.9226 17.6513 35.6597 17.8791 36.1516 18.0685C36.8021 18.3205 37.2663 18.6231 37.7543 19.1101C38.2423 19.5972 38.5433 20.0617 38.7965 20.7118C38.9878 21.202 39.2141 21.9401 39.2758 23.2978C39.3434 24.7668 39.3568 25.2065 39.3568 28.9251C39.3568 32.6438 39.3434 33.0835 39.2758 34.5525C39.2139 35.9101 38.9866 36.6481 38.7965 37.1384C38.5433 37.7886 38.2416 38.2524 37.7543 38.739C37.267 39.2256 36.8021 39.5275 36.1516 39.7806C35.6612 39.9718 34.9226 40.1979 33.5641 40.2597C32.0954 40.3272 31.6543 40.3406 27.9334 40.3406C24.2125 40.3406 23.7725 40.3272 22.3043 40.2597ZM22.1889 15.0843C20.7056 15.1518 19.6921 15.3869 18.8069 15.7311C17.8902 16.0866 17.1142 16.5635 16.3387 17.3373C15.5632 18.1111 15.0872 18.8879 14.7316 19.804C14.3871 20.6892 14.1519 21.7016 14.0844 23.184C14.0157 24.6688 14 25.1434 14 28.925C14 32.7066 14.0157 33.1813 14.0844 34.666C14.1519 36.1485 14.3871 37.1608 14.7316 38.046C15.0872 38.9616 15.5633 39.7393 16.3387 40.5128C17.1141 41.2862 17.8902 41.7624 18.8069 42.1189C19.6937 42.4631 20.7056 42.6982 22.1889 42.7657C23.6753 42.8332 24.1495 42.85 27.9334 42.85C31.7172 42.85 32.1922 42.8343 33.6778 42.7657C35.1612 42.6982 36.1741 42.4631 37.0598 42.1189C37.976 41.7624 38.7526 41.2865 39.5281 40.5128C40.3035 39.739 40.7785 38.9616 41.1352 38.046C41.4796 37.1608 41.7159 36.1484 41.7824 34.666C41.8499 33.1802 41.8656 32.7066 41.8656 28.925C41.8656 25.1434 41.8499 24.6688 41.7824 23.184C41.7148 21.7015 41.4796 20.6886 41.1352 19.804C40.7785 18.8884 40.3023 18.1123 39.5281 17.3373C38.7538 16.5623 37.976 16.0866 37.061 15.7311C36.1741 15.3869 35.1611 15.1507 33.6789 15.0843C32.1933 15.0168 31.7183 15 27.9345 15C24.1506 15 23.6753 15.0157 22.1889 15.0843Z" fill="url(#paint0_radial_1_2291)"/>
<path id="Vector_2" d="M23.2897 28.925C23.2897 26.3616 25.3684 24.283 27.9334 24.283C30.4983 24.283 32.5782 26.3616 32.5782 28.925C32.5782 31.4884 30.4983 33.5671 27.9334 33.5671C25.3684 33.5671 23.2897 31.4884 23.2897 28.925ZM20.7788 28.925C20.7788 32.8742 23.9819 36.0753 27.9334 36.0753C31.8849 36.0753 35.088 32.8742 35.088 28.925C35.088 24.9759 31.8849 21.7747 27.9334 21.7747C23.9819 21.7747 20.7788 24.9759 20.7788 28.925ZM33.6992 21.4912C33.6991 21.8217 33.797 22.1448 33.9806 22.4196C34.1643 22.6945 34.4253 22.9088 34.7308 23.0354C35.0362 23.162 35.3724 23.1952 35.6968 23.1309C36.0211 23.0665 36.3191 22.9075 36.553 22.6739C36.787 22.4403 36.9463 22.1426 37.011 21.8185C37.0756 21.4944 37.0426 21.1584 36.9162 20.853C36.7898 20.5476 36.5756 20.2866 36.3007 20.1028C36.0258 19.9191 35.7026 19.821 35.3719 19.8208H35.3712C34.928 19.821 34.5029 19.9971 34.1894 20.3103C33.8759 20.6234 33.6996 21.0482 33.6992 21.4912ZM22.3043 40.2597C20.9458 40.1978 20.2075 39.9717 19.7168 39.7806C19.0663 39.5275 18.6021 39.2261 18.1141 38.739C17.6261 38.252 17.3241 37.7886 17.0719 37.1384C16.8806 36.6483 16.6544 35.9101 16.5926 34.5525C16.5251 33.0847 16.5116 32.6438 16.5116 28.9251C16.5116 25.2065 16.5262 24.7668 16.5926 23.2978C16.6545 21.9401 16.8824 21.2034 17.0719 20.7118C17.3252 20.0617 17.6268 19.5978 18.1141 19.1101C18.6015 18.6224 19.0652 18.3205 19.7168 18.0685C20.2073 17.8774 20.9458 17.6512 22.3043 17.5895C23.773 17.522 24.2142 17.5085 27.9334 17.5085C31.6526 17.5085 32.0942 17.5231 33.5641 17.5895C34.9226 17.6513 35.6597 17.8791 36.1516 18.0685C36.8021 18.3205 37.2663 18.6231 37.7543 19.1101C38.2423 19.5972 38.5433 20.0617 38.7965 20.7118C38.9878 21.202 39.2141 21.9401 39.2758 23.2978C39.3434 24.7668 39.3568 25.2065 39.3568 28.9251C39.3568 32.6438 39.3434 33.0835 39.2758 34.5525C39.2139 35.9101 38.9866 36.6481 38.7965 37.1384C38.5433 37.7886 38.2416 38.2524 37.7543 38.739C37.267 39.2256 36.8021 39.5275 36.1516 39.7806C35.6612 39.9718 34.9226 40.1979 33.5641 40.2597C32.0954 40.3272 31.6543 40.3406 27.9334 40.3406C24.2125 40.3406 23.7725 40.3272 22.3043 40.2597ZM22.1889 15.0843C20.7056 15.1518 19.6921 15.3869 18.8069 15.7311C17.8902 16.0866 17.1142 16.5635 16.3387 17.3373C15.5632 18.1111 15.0872 18.8879 14.7316 19.804C14.3871 20.6892 14.1519 21.7016 14.0844 23.184C14.0157 24.6688 14 25.1434 14 28.925C14 32.7066 14.0157 33.1813 14.0844 34.666C14.1519 36.1485 14.3871 37.1608 14.7316 38.046C15.0872 38.9616 15.5633 39.7393 16.3387 40.5128C17.1141 41.2862 17.8902 41.7624 18.8069 42.1189C19.6937 42.4631 20.7056 42.6982 22.1889 42.7657C23.6753 42.8332 24.1495 42.85 27.9334 42.85C31.7172 42.85 32.1922 42.8343 33.6778 42.7657C35.1612 42.6982 36.1741 42.4631 37.0598 42.1189C37.976 41.7624 38.7526 41.2865 39.5281 40.5128C40.3035 39.739 40.7785 38.9616 41.1352 38.046C41.4796 37.1608 41.7159 36.1484 41.7824 34.666C41.8499 33.1802 41.8656 32.7066 41.8656 28.925C41.8656 25.1434 41.8499 24.6688 41.7824 23.184C41.7148 21.7015 41.4796 20.6886 41.1352 19.804C40.7785 18.8884 40.3023 18.1123 39.5281 17.3373C38.7538 16.5623 37.976 16.0866 37.061 15.7311C36.1741 15.3869 35.1611 15.1507 33.6789 15.0843C32.1933 15.0168 31.7183 15 27.9345 15C24.1506 15 23.6753 15.0157 22.1889 15.0843Z" fill="url(#paint1_radial_1_2291)"/>
</g>
</g>
<defs>
<radialGradient id="paint0_radial_1_2291" cx="0" cy="0" r="1" gradientUnits="userSpaceOnUse" gradientTransform="translate(17.7023 42.9816) scale(36.3777 36.3559)">
<stop offset="0.09" stop-color="#FA8F21"/>
<stop offset="0.78" stop-color="#D82D7E"/>
</radialGradient>
<radialGradient id="paint1_radial_1_2291" cx="0" cy="0" r="1" gradientUnits="userSpaceOnUse" gradientTransform="translate(30.9 44.2293) scale(28.6706 28.6535)">
<stop offset="0.64" stop-color="#8C3AAA" stop-opacity="0"/>
<stop offset="1" stop-color="#8C3AAA"/>
</radialGradient>
</defs>
</svg>
