<svg width="57" height="60" viewBox="0 0 57 60" fill="none" xmlns="http://www.w3.org/2000/svg">
<g id="Group 120">
<path id="Rectangle 42" d="M1.5 31C1.5 15.8122 13.8122 3.5 29 3.5C44.1878 3.5 56.5 15.8122 56.5 31V32C56.5 47.1878 44.1878 59.5 29 59.5C13.8122 59.5 1.5 47.1878 1.5 32V31Z" fill="black" stroke="black"/>
<path id="Rectangle 43" d="M1 28C1 13.0883 13.0883 1 28 1C42.9117 1 55 13.0883 55 28V29C55 43.9117 42.9117 56 28 56C13.0883 56 1 43.9117 1 29V28Z" fill="white" stroke="black" stroke-width="2"/>
<g id="Group 117">
<path id="Vector" d="M14 16.9962C14 15.8943 14.9405 15 16.0999 15H40.3132C41.4731 15 42.4132 15.8943 42.4132 16.9962V40.8709C42.4132 41.9731 41.4731 42.8668 40.3132 42.8668H16.0999C14.9406 42.8668 14 41.9732 14 40.8712V16.9958V16.9962Z" fill="#006699"/>
<path id="Vector_2" d="M22.6352 38.32V25.7743H18.3834V38.32H22.6356H22.6352ZM20.5102 24.0617C21.9926 24.0617 22.9154 23.0983 22.9154 21.8944C22.8877 20.663 21.9926 19.7266 20.5384 19.7266C19.0832 19.7266 18.1328 20.663 18.1328 21.8943C18.1328 23.0982 19.0554 24.0616 20.4823 24.0616H20.5099L20.5102 24.0617ZM24.9886 38.32H29.24V31.3147C29.24 30.9402 29.2678 30.5648 29.3801 30.2973C29.6873 29.5478 30.3869 28.772 31.5617 28.772C33.0998 28.772 33.7154 29.9224 33.7154 31.6091V38.32H37.9667V31.1267C37.9667 27.2733 35.8695 25.4802 33.0722 25.4802C30.7789 25.4802 29.7717 26.7373 29.2121 27.5936H29.2404V25.7747H24.9888C25.0443 26.9517 24.9885 38.3204 24.9885 38.3204L24.9886 38.32Z" fill="white"/>
</g>
</g>
</svg>
