<svg width="57" height="60" viewBox="0 0 57 60" fill="none" xmlns="http://www.w3.org/2000/svg">
<g id="Group 119">
<path id="Rectangle 44" d="M1.5 31C1.5 15.8122 13.8122 3.5 29 3.5C44.1878 3.5 56.5 15.8122 56.5 31V32C56.5 47.1878 44.1878 59.5 29 59.5C13.8122 59.5 1.5 47.1878 1.5 32V31Z" fill="black" stroke="black"/>
<path id="Rectangle 45" d="M1 28C1 13.0883 13.0883 1 28 1C42.9117 1 55 13.0883 55 28V29C55 43.9117 42.9117 56 28 56C13.0883 56 1 43.9117 1 29V28Z" fill="white" stroke="black" stroke-width="2"/>
<path id="Vector" d="M40.9167 20.5779C40.0746 20.9403 39.1893 21.1926 38.2827 21.3287C38.7065 21.256 39.3302 20.4931 39.5785 20.1843C39.9556 19.7185 40.2431 19.1867 40.4262 18.616C40.4262 18.5736 40.4686 18.5131 40.4262 18.4828C40.4048 18.4711 40.3809 18.465 40.3566 18.465C40.3322 18.465 40.3083 18.4711 40.2869 18.4828C39.3025 19.0159 38.2547 19.4228 37.1685 19.6938C37.1307 19.7054 37.0904 19.7064 37.052 19.6968C37.0136 19.6872 36.9785 19.6673 36.9505 19.6393C36.866 19.5386 36.775 19.4436 36.6781 19.3547C36.235 18.9578 35.7324 18.6329 35.1885 18.3919C34.4543 18.0908 33.6613 17.9603 32.8694 18.0105C32.1009 18.059 31.3507 18.2651 30.6653 18.616C29.9904 18.9859 29.3972 19.4885 28.9214 20.0934C28.421 20.7161 28.0597 21.4388 27.8618 22.2127C27.6986 22.9489 27.6801 23.7099 27.8073 24.4531C27.8073 24.5803 27.8073 24.5985 27.6983 24.5803C23.381 23.9445 19.8388 22.4126 16.9444 19.1246C16.8172 18.9793 16.7506 18.9793 16.6477 19.1246C15.3882 21.038 15.9998 24.0656 17.5741 25.5612C17.7861 25.761 18.0041 25.9548 18.2341 26.1365C17.5123 26.0852 16.8081 25.8896 16.1633 25.5612C16.0422 25.4825 15.9756 25.5249 15.9695 25.6702C15.9524 25.8717 15.9524 26.0743 15.9695 26.2757C16.0959 27.2413 16.4764 28.1559 17.0722 28.9262C17.6679 29.6965 18.4576 30.2947 19.3604 30.6596C19.5805 30.7539 19.8098 30.8249 20.0446 30.8716C19.3764 31.0031 18.6911 31.0236 18.0162 30.9321C17.8708 30.9018 17.8163 30.9806 17.8708 31.1198C18.7609 33.5419 20.6925 34.2806 22.1094 34.6924C22.3032 34.7226 22.497 34.7226 22.7149 34.7711C22.7149 34.7711 22.7149 34.7711 22.6786 34.8074C22.2608 35.5703 20.5714 36.085 19.7964 36.3515C18.3817 36.8596 16.8734 37.0538 15.3761 36.9206C15.14 36.8843 15.0855 36.8904 15.0249 36.9206C14.9644 36.9509 15.0249 37.0175 15.0915 37.0781C15.3943 37.2779 15.6971 37.4535 16.0119 37.623C16.9493 38.1343 17.9403 38.5404 18.9668 38.8341C24.2832 40.2994 30.2657 39.2216 34.256 35.2555C37.3926 32.1431 38.4946 27.8501 38.4946 23.5509C38.4946 23.3874 38.6944 23.2905 38.8095 23.2058C39.603 22.5875 40.3026 21.8573 40.8864 21.038C40.9875 20.9159 41.0393 20.7604 41.0317 20.6021C41.0317 20.5112 41.0317 20.5294 40.9167 20.5779Z" fill="#33CCFF"/>
</g>
</svg>
