<svg width="57" height="60" viewBox="0 0 57 60" fill="none" xmlns="http://www.w3.org/2000/svg">
<g id="Group 118">
<path id="Rectangle 46" d="M1.5 31C1.5 15.8122 13.8122 3.5 29 3.5C44.1878 3.5 56.5 15.8122 56.5 31V32C56.5 47.1878 44.1878 59.5 29 59.5C13.8122 59.5 1.5 47.1878 1.5 32V31Z" fill="black" stroke="black"/>
<path id="Rectangle 47" d="M1 28C1 13.0883 13.0883 1 28 1C42.9117 1 55 13.0883 55 28V29C55 43.9117 42.9117 56 28 56C13.0883 56 1 43.9117 1 29V28Z" fill="white" stroke="black" stroke-width="2"/>
<g id="Vector">
<path d="M42.4642 21.1852C42.1312 19.9334 41.1462 18.9458 39.8929 18.6074C37.6269 18 28.535 18 28.535 18C28.535 18 19.4477 18 17.1771 18.6074C15.9284 18.9412 14.9434 19.9287 14.6058 21.1852C14 23.457 14 28.2 14 28.2C14 28.2 14 32.943 14.6058 35.2148C14.9388 36.4666 15.9238 37.4542 17.1771 37.7926C19.4477 38.4 28.535 38.4 28.535 38.4C28.535 38.4 37.6269 38.4 39.8929 37.7926C41.1416 37.4588 42.1266 36.4713 42.4642 35.2148C43.07 32.943 43.07 28.2 43.07 28.2C43.07 28.2 43.07 23.457 42.4642 21.1852Z" fill="#FF3000"/>
<path d="M25.6308 32.5721L33.1827 28.2L25.6308 23.8279V32.5721Z" fill="white"/>
</g>
</g>
</svg>
