<svg width="20" height="29" viewBox="0 0 20 29" fill="none" xmlns="http://www.w3.org/2000/svg">
<path d="M17.9989 24.7792L17.9988 24.7792C17.3435 24.3288 16.6874 23.8823 16.0325 23.4366C14.0506 22.0878 12.0787 20.7459 10.1667 19.3219C8.87231 18.358 7.6575 17.3105 6.41234 16.2369C5.99083 15.8734 5.56583 15.5069 5.1331 15.1397C5.26685 15.0227 5.38662 14.9175 5.50481 14.8118C9.37587 11.3685 13.2389 7.91672 17.0939 4.45639L17.0941 4.4562C17.583 4.01692 18.0264 3.53131 18.4178 3.00641L18.418 3.00614C18.6891 2.64216 18.7755 2.1937 18.6444 1.80012C18.508 1.39089 18.1448 1.08613 17.657 1.06939L17.6371 1.0687L17.6172 1.0696C17.1427 1.09107 16.6877 1.26789 16.3258 1.57373C15.7353 2.05664 15.1604 2.5556 14.5919 3.04892L14.5702 3.06775C13.9918 3.56965 13.4199 4.06557 12.834 4.54328C9.22066 7.47515 5.60476 10.4042 1.98633 13.3305L1.98629 13.3306C1.40625 13.7998 1.00583 14.3567 1.00006 15.009C0.994309 15.6597 1.38307 16.2262 1.9512 16.7111C2.39522 17.0907 2.83977 17.4857 3.28843 17.8845C4.19918 18.6939 5.12684 19.5183 6.10121 20.2583C8.86837 22.3603 11.6762 24.4124 14.4789 26.4608C15.0312 26.8645 15.5833 27.268 16.1348 27.6717L16.1348 27.6717C17.0229 28.3216 18.199 28.1645 18.757 27.2592L18.757 27.259C19.0248 26.8242 19.0658 26.3395 18.9066 25.8869C18.7524 25.4483 18.4228 25.0706 17.9989 24.7792Z" fill="black" stroke="black"/>
</svg>
