<svg width="23" height="27" viewBox="0 0 23 27" fill="none" xmlns="http://www.w3.org/2000/svg">
<g id="play" clip-path="url(#clip0_1_2087)">
<path id="Vector" d="M21.5062 10.7536C21.3973 10.6551 21.2827 10.563 21.1631 10.478C20.809 10.225 20.453 9.95961 20.1087 9.70348C19.333 9.10442 18.5275 8.54529 17.6953 8.02828C14.0908 5.87402 10.0209 3.89871 5.25299 1.98978C4.51874 1.69576 3.77363 1.41432 2.98424 1.11643C2.60296 0.972458 2.20902 0.823516 1.79666 0.665995C1.76497 0.653894 1.73001 0.653651 1.69816 0.665303C1.66631 0.676955 1.63967 0.699724 1.62312 0.729472C1.58187 0.803324 1.53238 0.878139 1.48453 0.950745C1.35981 1.11264 1.26994 1.29886 1.22066 1.49757C1.08104 2.24652 0.989707 3.00377 0.947184 3.76456C0.926009 4.27663 0.904513 4.78865 0.882696 5.30063C0.768571 8.00173 0.650459 10.7946 0.607697 13.5432C0.566447 16.1748 0.576896 18.8504 0.586934 21.438C0.591059 22.4933 0.594073 23.5487 0.595998 24.604V24.6411C0.588005 24.9206 0.604567 25.2004 0.645496 25.4769C0.670439 25.6619 0.7374 25.8386 0.841171 25.9934C0.944944 26.148 1.08275 26.2767 1.2439 26.3692C1.40379 26.4544 1.58218 26.4983 1.7631 26.4972C1.95691 26.4951 2.1482 26.4528 2.32492 26.3727C2.50661 26.286 2.67972 26.1823 2.84192 26.0628C2.9141 26.013 2.98631 25.9632 3.05987 25.9167C3.50317 25.6363 3.94601 25.355 4.38839 25.0731C5.35832 24.4566 6.36111 23.8192 7.35386 23.2035C8.76506 22.328 10.1778 21.4554 11.5922 20.5854C13.3531 19.4999 15.1741 18.3773 16.9604 17.2652C18.6346 16.2229 20.1367 14.921 21.5316 13.6769C22.1015 13.1687 22.3679 12.7133 22.3703 12.2433C22.3723 11.7637 22.0977 11.2906 21.5062 10.7536Z" fill="black"/>
</g>
<defs>
<clipPath id="clip0_1_2087">
<rect width="22" height="26" fill="white" transform="translate(0.5 0.569092)"/>
</clipPath>
</defs>
</svg>
