<svg width="20" height="29" viewBox="0 0 20 29" fill="none" xmlns="http://www.w3.org/2000/svg">
<path id="arrow-single-right" d="M14.9102 14.6862C14.5383 14.3894 14.1758 14.0997 13.8198 13.8153C12.8712 13.0573 11.9693 12.3367 11.0631 11.6194L11.0631 11.6194C10.349 11.0542 9.62923 10.4913 8.90815 9.92736C7.33029 8.69336 5.74608 7.45441 4.20095 6.17535L4.2007 6.17515C3.48705 5.5836 2.84624 4.87974 2.23463 4.20795C2.01714 3.96906 1.80334 3.73422 1.59128 3.50993L1.59125 3.50991C1.39871 3.30625 1.16248 3.01878 1.05677 2.6765C1.00122 2.49663 0.978665 2.29224 1.02478 2.07687C1.07115 1.86028 1.18027 1.66412 1.34017 1.49225L14.9102 14.6862ZM14.9102 14.6862C14.7483 14.8127 14.5998 14.9311 14.4607 15.0523L14.9102 14.6862ZM3.45083 1.68779L3.45085 1.68782C5.5538 3.79563 7.9133 5.57935 10.3479 7.3094C10.9784 7.75746 11.6152 8.20268 12.2537 8.64917C14.0703 9.91938 15.9015 11.1998 17.6463 12.585L17.3567 12.9497L17.6463 12.585C18.3621 13.1533 18.8855 13.7638 18.9837 14.5017C19.0834 15.252 18.7235 15.963 18.1087 16.6771C17.7319 17.1295 17.3228 17.5537 16.8848 17.9464L16.8782 17.9523L16.8781 17.9522C16.2593 18.4875 15.6409 19.0242 15.022 19.5612C12.5847 21.6763 10.1416 23.7964 7.64816 25.8524L7.33006 25.4667L7.64815 25.8525C6.83823 26.5203 5.88443 27.0345 4.98641 27.5187C4.72295 27.6607 4.4643 27.8002 4.21548 27.9402C4.08535 28.0134 3.94335 28.0421 3.84149 28.0553C3.73023 28.0697 3.61577 28.0719 3.5124 28.0662C3.41125 28.0607 3.30151 28.0466 3.2025 28.0198C3.15476 28.0069 3.08941 27.9857 3.02365 27.9495C2.97848 27.9246 2.82573 27.8363 2.75934 27.6424C2.69864 27.4656 2.62762 27.2278 2.59589 26.9895C2.56786 26.7789 2.5509 26.4391 2.73548 26.1594C2.78917 26.078 2.84325 25.9955 2.89782 25.9123C3.4562 25.0608 4.06729 24.1289 4.85708 23.3996L4.8571 23.3996C6.19277 22.1663 7.58734 20.986 8.97234 19.8137C9.62668 19.2599 10.2789 18.7079 10.9217 18.1529C11.617 17.5527 12.3023 16.9491 12.9897 16.3437C13.4775 15.914 13.9664 15.4834 14.4607 15.0524L3.45083 1.68779ZM3.45083 1.68779C3.23685 1.47335 2.93222 1.21631 2.56484 1.11431M3.45083 1.68779L2.56484 1.11431M2.56484 1.11431C2.37054 1.06036 2.15283 1.0482 1.92828 1.11372M2.56484 1.11431L1.92828 1.11372M1.92828 1.11372C1.70476 1.17894 1.50861 1.31112 1.34031 1.49209L1.92828 1.11372Z" fill="black" stroke="black"/>
</svg>
