<svg width="145" height="157" viewBox="0 0 145 157" fill="none" xmlns="http://www.w3.org/2000/svg">
<g id="trophy">
<g id="Group 135" opacity="0.5">
<path id="Vector 148" d="M107.5 58.5L61.5 60V77L66 95.5L78 105H96.5L103 98.5L110 76L109 61L107.5 58.5Z" fill="#FFCD1D" stroke="black"/>
<path id="Vector 149" d="M93.5 120.5L89.5 109.5L91 106L82.5 107.5L79.5 117L73 123.5H97L93.5 120.5Z" fill="#D8B021"/>
<path id="Vector" d="M91.5477 108.685C92.5801 112.376 94.4153 115.356 96.3934 118.331C98.0737 120.859 100.073 121.774 103.124 121.594C107.476 121.338 108.15 122.168 108.485 126.547C108.733 129.799 108.963 133.051 109.221 136.562C110.184 136.562 111.022 136.562 111.863 136.562C114.621 136.562 116.742 138.472 116.856 141.089C116.954 143.359 117.255 145.623 117.466 147.886C117.638 149.719 117.925 151.551 117.954 153.386C117.995 156.156 116.968 157.07 114.161 156.996C106.354 156.788 98.5487 156.436 90.7414 156.393C80.784 156.339 70.825 156.533 60.8667 156.619C59.4335 156.632 57.9985 156.694 56.5674 156.641C54.1738 156.553 52.8202 155.179 52.9513 152.815C53.1607 149.055 53.4853 145.301 53.7889 141.547C53.9221 139.899 54.6585 138.716 56.4511 138.431C58.2001 138.152 59.9457 137.851 62.0009 137.51C62.124 136.146 62.294 134.616 62.3933 133.081C62.5378 130.81 62.6127 128.534 62.7484 126.262C62.9335 123.173 64.0425 121.907 67.1217 121.479C68.8904 121.232 70.688 121.174 72.4746 121.073C73.2097 121.032 73.8827 121.027 74.2848 120.241C76.0334 116.822 78.0329 113.515 79.0322 109.763C79.1331 109.261 79.203 108.753 79.2416 108.242C78.7076 108.051 78.2556 107.871 77.792 107.726C73.0434 106.246 68.8443 103.398 65.7271 99.5451C64.9196 98.5722 64.0074 98.2457 62.8167 98.0411C56.1596 96.8981 49.9916 94.5502 44.6893 90.287C41.2395 87.5132 38.9095 84.0307 38.164 79.5978C36.9239 72.1969 42.8816 64.9188 50.4162 64.7129C52.914 64.6447 55.4156 64.7021 57.9818 64.7021C58.3361 63.2909 58.5983 62.1233 58.9233 60.977C59.4447 59.1366 60.3272 57.7283 62.5918 57.7745C63.5048 57.794 64.4224 57.4106 65.3401 57.4002C79.0249 57.2435 92.7099 57.1101 106.395 57C107.251 57.0125 108.102 57.117 108.935 57.3115C110.827 57.7104 111.867 58.9786 112.3 60.7857C112.468 61.4766 112.59 62.1775 112.774 63.0759C113.323 63.0759 113.87 63.0825 114.418 63.0759C116.853 63.0397 119.289 62.9723 121.724 62.9669C127.057 62.9548 131.456 66.9967 130.962 73.2759C130.032 85.1034 120.88 94.2753 110.68 96.0646C110.613 96.0887 110.542 96.1027 110.47 96.1062C107.751 95.6865 106.608 97.3915 105.293 99.4037C102.129 104.238 97.6156 107.377 91.5477 108.685ZM63.104 61.3423C63.0056 61.9288 62.931 62.2706 62.8921 62.6171C61.9857 71.0566 62.8411 79.591 65.405 87.6875C68.1508 96.5795 74.1524 102.195 83.7392 103.421C89.8272 104.2 95.3497 103.068 99.4554 98.1297C100.768 96.5379 101.872 94.7868 102.741 92.9186C107.096 83.5741 108.285 73.74 107.017 63.572C106.933 62.8944 106.733 62.2311 106.539 61.3423H63.104ZM57.5449 142.539C57.8616 145.877 58.1539 148.961 58.4567 152.159C59.42 152.159 60.1211 152.186 60.821 152.155C66.54 151.905 72.2573 151.48 77.978 151.423C88.6452 151.317 99.3143 151.423 109.983 151.436C110.597 151.436 111.211 151.376 111.896 151.34C112.219 148.134 112.521 145.127 112.843 141.94L57.5449 142.539ZM101.867 136.705C102.17 133.298 102.826 130.137 102.83 126.781C90.9546 126.534 79.3483 125.53 67.4522 126.089C67.871 129.972 68.2697 133.659 68.6697 137.364L101.867 136.705ZM57.7733 68.7682C55.1112 69.1396 52.723 69.5097 50.3249 69.7963C47.9037 70.0874 46.3 71.4184 45.1575 73.4714C43.2883 76.8341 43.664 80.112 45.8695 83.0617C49.5853 88.0341 55.0303 90.2218 61.1183 91.9653C58.4559 84.3244 57.9056 76.7264 57.7733 68.7682ZM109.914 89.6149C116.273 87.7083 120.455 84.0449 122.965 78.6346C123.869 76.5584 124.462 74.3615 124.724 72.1142C125.017 69.9651 123.989 68.662 122.089 68.368C119.127 67.9129 116.147 68.2432 113.007 68.2016C113.407 75.4721 112.356 82.7492 109.914 89.6149ZM86.753 109.141L83.7857 108.988C82.3885 113.015 81.0533 116.861 79.6516 120.9H91.3219L86.753 109.141Z" fill="black"/>
</g>
</g>
</svg>
