<svg width="45" height="40" viewBox="0 0 45 40" fill="none" xmlns="http://www.w3.org/2000/svg">
<g clip-path="url(#clip0_1_1677)">
<path d="M37.4354 13.1105C36.7649 13.1212 36.3701 12.9422 36.1302 12.4748C35.9019 12.0306 36.0512 11.6319 36.2938 11.2643C36.4211 11.0704 36.587 10.9051 36.7811 10.7789C37.8116 10.1282 38.8385 9.468 39.9023 8.87596C40.2546 8.70319 40.6488 8.63579 41.0381 8.68179C41.2185 8.70247 41.3914 8.76575 41.5428 8.86645C41.6942 8.96715 41.8197 9.10243 41.9093 9.26124C41.9988 9.42004 42.0496 9.59786 42.0577 9.78019C42.0658 9.96252 42.0308 10.1442 41.9557 10.3103C41.766 10.7301 41.4655 11.0896 41.0866 11.3494C40.1341 11.9303 39.1259 12.4214 38.1264 12.921C37.9047 13.0127 37.6726 13.0764 37.4354 13.1105Z" fill="white"/>
<path d="M6.17531 14.513C5.96286 14.3926 5.48159 14.2233 5.14284 13.9014C4.59745 13.3721 4.10243 12.7927 3.66421 12.1709C3.43056 11.8544 3.29662 11.4749 3.27966 11.0812C3.28758 10.3627 4.04022 9.84446 4.80174 10.1006C5.43366 10.2968 6.02076 10.6166 6.52928 11.0418C7.0378 11.4669 7.45769 11.989 7.76481 12.5779C8.27835 13.586 7.57069 14.5456 6.17531 14.513Z" fill="white"/>
<path d="M33.4922 0.102821C34.5049 0.0966074 35.1145 0.858343 34.9142 1.65873C34.8588 1.91814 34.74 2.15954 34.5683 2.36106C33.8823 3.07329 33.1903 3.78515 32.4438 4.43117C32.0815 4.74457 31.624 4.97873 31.0737 4.79232C30.4331 4.57523 30.1239 4.04552 30.3319 3.40416C30.3854 3.21207 30.4756 3.0322 30.5971 2.87445C31.2414 2.12358 31.8772 1.36164 32.5721 0.659889C32.8577 0.371345 33.2843 0.22418 33.4922 0.102821Z" fill="white"/>
<path d="M15.4996 3.85889C15.4417 4.44724 15.197 4.88279 14.6691 5.13891C14.1755 5.37813 13.7483 5.21384 13.4053 4.87248C12.6603 4.16254 12.1003 3.27932 11.7747 2.30062C11.5574 1.60877 11.7617 1.03055 12.2602 0.719679C12.7903 0.389581 13.3666 0.435956 13.8701 0.977898C14.6382 1.80586 15.2825 2.72452 15.4996 3.85889Z" fill="white"/>
<path d="M44.7841 19.1763C44.769 18.6765 44.6809 18.1817 44.5222 17.7078C44.292 17.0793 43.8771 16.6523 43.3572 16.5088C42.8313 16.3629 42.2517 16.5206 41.7258 16.9495C41.3289 17.2728 40.9399 17.626 40.5649 17.9672C40.4104 18.1068 40.2559 18.2486 40.1014 18.3862L38.0414 20.2277C36.3604 21.7302 34.6782 23.2328 32.9946 24.7351C32.8739 24.8367 32.7467 24.93 32.6136 25.0143C32.5599 25.0502 32.5045 25.0862 32.4489 25.1262C32.4112 25.152 32.3683 25.1689 32.3233 25.1755C32.2783 25.1823 32.2323 25.1788 32.1889 25.165C32.1451 25.1514 32.1053 25.1277 32.072 25.0959C32.039 25.064 32.0137 25.0248 31.9983 24.9815C31.6232 23.9499 31.2582 22.9233 30.893 21.9007C30.0818 19.6289 29.2419 17.2779 28.3629 15.0033C27.1383 11.8383 25.8246 8.76797 24.5903 5.92079C24.2681 5.23269 23.8305 4.60566 23.2963 4.06721C22.816 3.56236 22.2901 3.5245 21.5934 3.94954C21.026 4.29265 20.7838 4.88721 20.5277 5.51576L20.504 5.57401C20.2481 6.19653 19.9949 6.8204 19.744 7.44564C18.9759 9.34118 18.1821 11.3045 17.3387 13.208C16.064 16.087 14.6852 18.9783 13.3814 21.6933C12.9389 22.6151 12.4567 23.5009 11.9466 24.4388C11.7148 24.866 11.4783 25.3007 11.2421 25.7477C11.223 25.7842 11.1967 25.8163 11.1648 25.8419C11.1328 25.8675 11.0959 25.8864 11.0564 25.897C11.017 25.9077 10.9757 25.91 10.9352 25.904C10.8948 25.8978 10.856 25.8834 10.8214 25.8615L9.98379 25.3326C9.4519 24.9994 8.96772 24.6963 8.48546 24.3889C7.80679 23.958 7.12807 23.5264 6.44926 23.0939C5.11973 22.246 3.7888 21.4013 2.45643 20.56C2.15769 20.3401 1.80361 20.2087 1.43437 20.1809C1.16242 20.1897 0.902891 20.2974 0.704132 20.4842C0.118552 20.9669 -0.0461861 21.5636 0.20199 22.3095C0.360745 22.7902 0.575123 23.2693 0.781389 23.7341L0.791431 23.7535C0.958105 24.1308 1.14061 24.5118 1.3152 24.8809C1.64469 25.5772 1.98808 26.2984 2.26388 27.0363C2.44052 27.5031 2.61783 27.9706 2.79576 28.439C3.93293 31.4337 5.10776 34.5304 5.87585 37.7188C6.13581 38.8003 6.75692 39.385 7.77493 39.5065C8.05478 39.5405 8.33501 39.5765 8.61255 39.6124C9.75446 39.7852 10.907 39.878 12.0617 39.8897C14.6852 39.8559 17.3524 39.758 19.9325 39.6642C21.0675 39.6223 22.202 39.5825 23.3359 39.5446C25.1975 39.4846 27.0591 39.4273 28.9205 39.373L31.0579 39.3071C31.2306 39.3031 31.4032 39.297 31.5778 39.2932C31.7663 39.2891 31.9569 39.2831 32.1474 39.2772C32.8083 39.2578 33.4692 39.2312 34.1299 39.2073C35.7522 39.1475 37.4263 39.0856 39.0774 39.0757C39.8395 39.0716 40.3773 38.8038 40.7723 38.2357C41.0444 37.8184 41.2513 37.3615 41.3855 36.8809L41.5999 36.1745C42.475 33.2933 43.3781 30.3124 43.9098 27.2957C43.9615 27.0023 44.015 26.711 44.0666 26.4176C44.4903 24.0607 44.9308 21.6184 44.7841 19.1763ZM38.1695 35.6153C38.1505 35.6679 38.1171 35.7139 38.0733 35.7483C38.0294 35.7827 37.9767 35.8038 37.9215 35.8095C37.6833 35.8355 37.4373 35.8654 37.1891 35.8953C36.6217 35.9652 36.0322 36.037 35.4368 36.0629C34.4603 36.1048 33.4682 36.1347 32.5095 36.16C31.2315 36.1988 29.9097 36.2357 28.6138 36.3075C27.1037 36.3933 25.5675 36.519 24.0831 36.6407C23.2298 36.7106 22.3764 36.7805 21.5231 36.8423C20.2768 36.9341 19.2368 37.0079 18.1533 37.0419C15.484 37.1277 12.7711 37.1972 10.1476 37.2654L8.84778 37.2992H8.81785C8.69712 37.2966 8.57691 37.2825 8.45881 37.2572C8.41903 37.2493 8.37943 37.2413 8.34158 37.2378C8.28524 37.23 8.23232 37.2062 8.18906 37.1691C8.1458 37.1318 8.11403 37.0831 8.09746 37.0283L4.65042 25.7551C4.63211 25.697 4.63203 25.6345 4.65021 25.5763C4.66836 25.518 4.7039 25.4669 4.75197 25.4297C4.80004 25.3924 4.85835 25.3708 4.91899 25.3681C4.97962 25.3652 5.03964 25.3811 5.09096 25.4137L5.53748 25.6912C5.83317 25.8747 6.1051 26.0423 6.37297 26.2139C6.75395 26.4574 7.13502 26.6996 7.51613 26.9401C8.46074 27.5407 9.43915 28.1594 10.3818 28.8017C10.985 29.2128 11.513 29.3704 11.9476 29.2706C12.3725 29.1735 12.7473 28.8357 13.0907 28.2392L13.3997 27.7064C13.9832 26.7007 14.5865 25.6592 15.0885 24.5996C16.7494 21.08 18.4146 17.4886 20.0242 14.0148C20.6592 12.644 21.2956 11.2733 21.9333 9.90255C21.9868 9.78605 22.0425 9.673 22.1218 9.51552L22.2746 9.2062C22.2991 9.15428 22.3385 9.11086 22.3876 9.08139C22.4368 9.05191 22.4934 9.03776 22.5506 9.04061C22.6076 9.04201 22.663 9.05985 22.7101 9.09205C22.7572 9.12424 22.7941 9.16939 22.8163 9.22213C23.0506 9.77688 23.2868 10.3136 23.519 10.8404C24.023 11.986 24.4993 13.067 24.9062 14.1903C25.8369 16.7662 26.7478 19.3942 27.631 21.9378C28.137 23.3945 28.6451 24.8518 29.1552 26.3095C29.4072 27.0528 29.7013 27.7809 30.0362 28.4902C30.1463 28.7491 30.3153 28.9782 30.5299 29.1592C30.7443 29.3401 30.998 29.4677 31.2707 29.5318C31.8046 29.6376 32.3681 29.452 32.8602 29.011C33.6084 28.3407 34.3528 27.6642 35.0969 26.9899C35.7499 26.3972 36.4027 25.806 37.0557 25.2161C37.8871 24.47 38.7212 23.7256 39.5581 22.9831L40.6782 21.9873C40.7196 21.9506 40.77 21.926 40.8243 21.9163C40.8785 21.9064 40.9345 21.9118 40.9859 21.9316L41.1922 22.0133C41.2553 22.0382 41.3084 22.0838 41.3422 22.1431C41.3762 22.2023 41.389 22.2712 41.3787 22.3386C40.7692 26.2495 39.9119 30.8864 38.1695 35.6153Z" fill="white"/>
</g>
<defs>
<clipPath id="clip0_1_1677">
<rect width="45" height="40" fill="white"/>
</clipPath>
</defs>
</svg>
