<svg width="49" height="34" viewBox="0 0 49 34" fill="none" xmlns="http://www.w3.org/2000/svg">
<g clip-path="url(#clip0_1_1688)">
<path d="M43.9619 6.70567C43.8551 6.36655 43.7487 6.02737 43.6424 5.68813C43.3929 4.85172 42.8933 4.11244 42.212 3.57197C41.5516 3.05063 40.8514 2.95645 40.1875 3.29967L40.0087 3.39162C39.4741 3.66597 38.9211 3.94966 38.4816 4.35924C37.7078 5.08089 36.9618 5.85568 36.2403 6.60468C35.9242 6.93297 35.6081 7.26127 35.2882 7.58682C35.2541 7.62084 35.2181 7.65288 35.1805 7.68281C35.0918 7.50189 35.0057 7.32181 34.9201 7.14347C34.6619 6.60481 34.418 6.0962 34.1298 5.59848C33.8375 5.07623 33.423 4.63376 32.9226 4.30992C32.4222 3.9861 31.8511 3.79083 31.2596 3.74131C30.4846 3.65899 29.6651 3.59148 28.914 3.74307C25.5662 4.41913 22.51 5.08603 19.5709 5.78222C15.8305 6.66929 12.0348 7.63993 8.77091 8.4812C7.26911 8.86747 5.50168 9.34231 3.77814 9.9256C2.2316 10.4486 1.43673 11.5921 1.47941 13.2326C1.48126 13.3006 1.47656 13.3689 1.47222 13.4372C1.46788 13.5056 1.46351 13.5752 1.46392 13.644C1.47876 15.8548 1.8948 18.192 2.73759 20.7882C3.43367 22.9327 4.2095 25.0895 4.96044 27.1753C5.13498 27.6606 5.30956 28.146 5.48422 28.6317C5.83094 29.5998 6.17491 30.4572 6.87567 31.145C8.14013 32.3856 9.58561 32.8161 11.1761 32.4247C11.2056 32.4175 11.2352 32.4102 11.2647 32.4021C12.2556 32.1402 13.2597 31.8624 14.2308 31.5937C15.2904 31.3007 16.3861 30.9977 17.467 30.7138C19.8802 30.0814 22.2945 29.4536 24.7099 28.8299C27.1103 28.2082 29.5104 27.584 31.9101 26.9579C32.9316 26.6898 34.0179 26.3961 35.0814 26.0053C36.1581 25.6096 37.259 25.1297 37.8586 24.0059C38.2877 23.2012 38.8157 22.2111 38.7499 20.9745L38.9938 21.0288C39.2793 21.0922 39.5286 21.1477 39.7796 21.198L40.0841 21.2592C41.1897 21.4813 42.3327 21.7112 43.498 21.6011C44.8992 21.4691 45.8368 21.057 46.3649 20.3423C46.858 19.6752 46.9802 18.7504 46.7387 17.5151C46.3765 15.6622 45.9709 13.6808 45.4617 11.7447C45.0142 10.0499 44.4791 8.34993 43.9619 6.70567ZM44.6232 18.0016C44.6527 18.2067 44.6606 18.4142 44.6471 18.6208C44.6454 18.688 44.6433 18.7533 44.6427 18.8193C43.7209 19.2158 42.8458 19.0926 42.0358 18.8978C41.1024 18.6733 40.1763 18.4017 39.2807 18.1396C38.9349 18.0383 38.5931 17.9382 38.2562 17.8423L35.9296 9.63065C37.5335 7.95707 39.0144 6.47123 40.7847 5.26287C41.2277 5.47767 41.385 5.86302 41.5075 6.24154C42.5378 9.42601 43.8235 13.641 44.6232 18.0016ZM8.13221 28.4779C7.86364 27.8045 7.58617 27.1085 7.3453 26.4146C7.11211 25.7425 6.89164 25.0521 6.67839 24.3845C6.57542 24.0622 6.47238 23.7396 6.36758 23.4179C6.28632 23.1684 6.20728 22.9183 6.12817 22.6681C5.94283 22.0823 5.75104 21.4763 5.53437 20.8888C4.77381 18.8796 4.27615 16.7801 4.05399 14.6433C4.03274 14.4266 4.02522 14.2025 4.01796 13.9855C4.01071 13.7685 4.00313 13.5421 3.98165 13.3191C3.92596 12.7373 4.17768 12.359 4.79837 12.093C5.44632 11.8148 6.08377 11.5464 6.6931 11.2948C8.06399 10.7484 9.4739 10.3061 10.911 9.97176C11.1245 9.91924 11.3363 9.86816 11.5467 9.81851C13.6292 9.32476 15.7392 8.79399 17.7797 8.28051C19.721 7.79208 21.7283 7.28711 23.7079 6.81514C25.4887 6.39045 27.3497 6.08091 28.9534 5.82489C29.5378 5.75766 30.1283 5.75804 30.7134 5.82599L30.882 5.83898C31.1996 5.84818 31.5085 5.94753 31.7734 6.12565C32.0384 6.30379 32.2485 6.55345 32.3797 6.84597C32.7343 7.58819 33.0502 8.34852 33.326 9.1238C33.8626 10.6921 34.3789 12.2694 34.8345 13.6611C35.001 14.1698 35.1596 14.6543 35.3084 15.1049L35.6082 16.6498C35.8596 17.9445 36.0743 19.0497 36.2826 20.1563C36.3437 20.4422 36.3724 20.7339 36.3686 21.0259C36.3171 22.1823 35.8776 22.9184 35.025 23.2762C34.2713 23.5891 33.4975 23.8512 32.7091 24.0605C29.8503 24.8295 26.9415 25.6041 24.1281 26.3532C21.6004 27.0262 19.0733 27.7008 16.5467 28.3774C15.5654 28.6407 14.5736 28.9269 13.6144 29.2037C12.98 29.3865 12.3459 29.5696 11.7102 29.7476C11.4805 29.8116 11.2386 29.8609 11.0054 29.908C10.8675 29.9359 10.7296 29.9637 10.5925 29.9947C9.42246 30.2601 8.53386 29.4878 8.20312 28.6579L8.13221 28.4779Z" fill="white" stroke="white"/>
</g>
<defs>
<clipPath id="clip0_1_1688">
<rect width="44" height="24" fill="white" transform="translate(0 10.5142) rotate(-13.8249)"/>
</clipPath>
</defs>
</svg>
