<svg width="35" height="33" viewBox="0 0 35 33" fill="none" xmlns="http://www.w3.org/2000/svg">
<path d="M28.3262 6.72023C28.4017 6.65281 28.4619 6.57005 28.5028 6.47747C28.5437 6.3849 28.5643 6.28465 28.5633 6.18345C28.5623 6.08225 28.5397 5.98242 28.497 5.89067C28.4543 5.79892 28.3924 5.71737 28.3156 5.65145C28.2347 5.58206 28.1545 5.51304 28.0748 5.44439C27.4669 4.92179 26.8386 4.38067 26.1812 3.9191C21.1594 0.384735 15.9417 0.364851 10.6736 2.23927C5.90383 3.93514 2.84078 7.32799 1.56822 12.3217C0.148666 17.9009 1.39174 22.8229 5.2655 26.9526C5.36629 27.0593 5.46914 27.166 5.57185 27.268C7.65278 29.349 10.2447 30.6337 12.2983 31.5277C13.1798 31.9127 17.7025 32.3802 18.9263 32.1978C26.1986 31.1119 30.9844 27.0101 32.6512 20.1479C32.9695 18.8037 33.128 17.4267 33.1234 16.0454C33.1162 14.5947 32.8722 13.155 32.4011 11.7829C32.3668 11.6803 32.3102 11.5865 32.2355 11.5083C32.1607 11.43 32.0695 11.3693 31.9686 11.3304C31.8676 11.2916 31.7592 11.2755 31.6513 11.2834C31.5434 11.2912 31.4385 11.3229 31.3443 11.376L31.3245 11.3873C31.1747 11.4731 31.0598 11.6088 31 11.7707C30.9402 11.9326 30.9392 12.1104 30.9972 12.273C31.4224 13.4524 31.6393 14.6967 31.638 15.9504C31.6232 17.4544 31.4196 18.9506 31.0319 20.4039C29.8829 24.5802 27.1359 27.6239 22.6338 29.7058C18.057 31.8971 11.4935 29.6818 9.74715 28.5288C7.81693 27.2092 6.12799 25.5675 4.75414 23.6755C2.59958 20.625 2.1162 16.2403 3.27397 12.2317C3.81577 10.3809 4.76266 8.67387 6.04598 7.23439C7.3293 5.79491 8.91688 4.65907 10.6936 3.90922C15.3158 1.98832 19.9536 1.64947 24.4771 4.5263C25.0836 4.91245 26.63 6.12673 27.4117 6.74683C27.5428 6.85085 27.7065 6.90516 27.8738 6.90014C28.0411 6.89512 28.2013 6.8311 28.3259 6.71941L28.3262 6.72023Z" fill="white" stroke="white"/>
<path d="M15.2646 21.0064C15.5744 20.712 15.7445 20.5631 15.9003 20.4003C20.8947 15.1824 26.3644 10.4848 31.8664 5.82349C32.0743 5.64742 32.2871 5.42281 32.5332 5.35973C32.83 5.28389 33.3139 5.37112 33.4465 5.53224C33.5336 5.65131 33.5887 5.79077 33.6064 5.93725C33.6242 6.08373 33.6039 6.23231 33.5477 6.36872C33.4184 6.70784 33.1034 6.99829 32.8176 7.25211C31.1122 8.76752 29.3591 10.2307 27.6838 11.7774C24.1817 15.0117 20.7019 18.27 17.2445 21.5525C15.7295 22.9876 15.1464 23.0458 13.7523 21.5123C12.8347 20.5023 10.0652 17.0985 9.21707 16.026C9.09724 15.8593 8.99051 15.6836 8.89783 15.5004C8.70654 15.1611 8.58147 14.7873 8.96173 14.5243C9.38532 14.2314 9.68591 14.5371 9.93699 14.8553C10.1911 15.1776 10.4078 15.5315 10.6798 15.8369C11.5244 16.7846 14.352 20.0069 15.2646 21.0064Z" fill="white" stroke="white"/>
</svg>
